<svg width="26" height="16" viewBox="0 0 26 16" fill="none" xmlns="http://www.w3.org/2000/svg">
<path d="M7.34231 15.6912C7.73438 16.0802 8.36754 16.0777 8.75651 15.6856C9.14547 15.2935 9.14295 14.6604 8.75087 14.2714L7.34231 15.6912ZM1 7.99066L0.295716 7.28074C0.106454 7.4685 0 7.72407 0 7.99066C0 8.25726 0.106454 8.51282 0.295716 8.70058L1 7.99066ZM8.75087 1.70992C9.14295 1.32095 9.14547 0.687793 8.75651 0.295716C8.36754 -0.096361 7.73438 -0.0988836 7.3423 0.290082L8.75087 1.70992ZM24.2527 8.99072C24.805 8.99072 25.2527 8.54301 25.2527 7.99073C25.2527 7.43844 24.805 6.99072 24.2527 6.99072L24.2527 8.99072ZM8.75087 14.2714L1.70428 7.28074L0.295716 8.70058L7.34231 15.6912L8.75087 14.2714ZM1.70428 8.70058L8.75087 1.70992L7.3423 0.290082L0.295716 7.28074L1.70428 8.70058ZM0.999997 8.99066L24.2527 8.99072L24.2527 6.99072L1 6.99066L0.999997 8.99066Z" fill="#08102E"/>
</svg>
