<svg width="22" height="22" viewBox="0 0 22 22" fill="none" xmlns="http://www.w3.org/2000/svg">
<path d="M6.25 5C6.25 5.41421 6.58579 5.75 7 5.75C7.41421 5.75 7.75 5.41421 7.75 5H6.25ZM14.25 5C14.25 5.41421 14.5858 5.75 15 5.75C15.4142 5.75 15.75 5.41421 15.75 5H14.25ZM1 11.25C0.585786 11.25 0.25 11.5858 0.25 12C0.25 12.4142 0.585786 12.75 1 12.75V11.25ZM21 12.75C21.4142 12.75 21.75 12.4142 21.75 12C21.75 11.5858 21.4142 11.25 21 11.25V12.75ZM7.75 10.5C7.75 10.0858 7.41421 9.75 7 9.75C6.58579 9.75 6.25 10.0858 6.25 10.5H7.75ZM6.25 13.5C6.25 13.9142 6.58579 14.25 7 14.25C7.41421 14.25 7.75 13.9142 7.75 13.5H6.25ZM15.75 10.5C15.75 10.0858 15.4142 9.75 15 9.75C14.5858 9.75 14.25 10.0858 14.25 10.5H15.75ZM14.25 13.5C14.25 13.9142 14.5858 14.25 15 14.25C15.4142 14.25 15.75 13.9142 15.75 13.5H14.25ZM5 5.75H17V4.25H5V5.75ZM20.25 9V17H21.75V9H20.25ZM17 20.25H5V21.75H17V20.25ZM1.75 17V9H0.25V17H1.75ZM5 20.25C3.20507 20.25 1.75 18.7949 1.75 17H0.25C0.25 19.6234 2.37665 21.75 5 21.75V20.25ZM20.25 17C20.25 18.7949 18.7949 20.25 17 20.25V21.75C19.6234 21.75 21.75 19.6234 21.75 17H20.25ZM17 5.75C18.7949 5.75 20.25 7.20507 20.25 9H21.75C21.75 6.37665 19.6234 4.25 17 4.25V5.75ZM5 4.25C2.37665 4.25 0.25 6.37665 0.25 9H1.75C1.75 7.20507 3.20507 5.75 5 5.75V4.25ZM7.75 5V4H6.25V5H7.75ZM10 1.75H12V0.25H10V1.75ZM14.25 4V5H15.75V4H14.25ZM12 1.75C13.2426 1.75 14.25 2.75736 14.25 4H15.75C15.75 1.92893 14.0711 0.25 12 0.25V1.75ZM7.75 4C7.75 2.75736 8.75736 1.75 10 1.75V0.25C7.92893 0.25 6.25 1.92893 6.25 4H7.75ZM1 12.75H21V11.25H1V12.75ZM6.25 10.5V13.5H7.75V10.5H6.25ZM14.25 10.5V13.5H15.75V10.5H14.25Z" fill="#9B51E0"/>
</svg>
