<svg width="958" height="306" viewBox="0 0 958 306" fill="none" xmlns="http://www.w3.org/2000/svg">
<path d="M1 278.638H957" stroke="#888888" stroke-width="0.5" stroke-linecap="round" stroke-linejoin="round"/>
<path d="M1 238.975H957" stroke="#CCCCCC" stroke-width="0.5" stroke-linecap="round" stroke-linejoin="round" stroke-dasharray="6 6"/>
<path d="M1 155.986H957" stroke="#CCCCCC" stroke-width="0.5" stroke-linecap="round" stroke-linejoin="round" stroke-dasharray="6 6"/>
<path d="M1 72.999H957" stroke="#CCCCCC" stroke-width="0.5" stroke-linecap="round" stroke-linejoin="round" stroke-dasharray="6 6"/>
<path d="M1 197.48H957" stroke="#CCCCCC" stroke-width="0.5" stroke-linecap="round" stroke-linejoin="round" stroke-dasharray="6 6"/>
<path d="M1 114.494H957" stroke="#CCCCCC" stroke-width="0.5" stroke-linecap="round" stroke-linejoin="round" stroke-dasharray="6 6"/>
<path d="M1 31.5049H957" stroke="#CCCCCC" stroke-width="0.5" stroke-linecap="round" stroke-linejoin="round" stroke-dasharray="6 6"/>
<rect x="30" y="108" width="48" height="157" fill="#56CCF2"/>
<rect x="108" y="184" width="48" height="81" fill="#56CCF2"/>
<rect x="186" width="48" height="265" fill="#56CCF2"/>
<rect x="265" y="64" width="48" height="201" fill="#56CCF2"/>
<rect x="577" y="64" width="48" height="201" fill="#56CCF2"/>
<rect x="342" y="128" width="48" height="137" fill="#56CCF2"/>
<rect x="654" y="128" width="48" height="137" fill="#56CCF2"/>
<rect x="420" y="64" width="48" height="201" fill="#56CCF2"/>
<rect x="732" y="64" width="48" height="201" fill="#56CCF2"/>
<rect x="498" y="184" width="48" height="81" fill="#56CCF2"/>
<rect x="889" y="184" width="48" height="81" fill="#56CCF2"/>
<rect x="811" y="128" width="48" height="137" fill="#56CCF2"/>
<path d="M43.6993 292.818H45.2305V300.037C45.2305 300.69 45.1013 301.248 44.8428 301.712C44.5875 302.176 44.2279 302.531 43.7639 302.776C43.2999 303.018 42.7563 303.139 42.1332 303.139C41.5598 303.139 41.0445 303.035 40.5871 302.826C40.133 302.617 39.7734 302.314 39.5082 301.916C39.2464 301.515 39.1155 301.028 39.1155 300.455H40.6418C40.6418 300.736 40.7064 300.98 40.8356 301.185C40.9682 301.391 41.1489 301.552 41.3776 301.668C41.6096 301.78 41.8747 301.837 42.173 301.837C42.4978 301.837 42.7729 301.769 42.9983 301.633C43.227 301.494 43.401 301.29 43.5203 301.021C43.6396 300.753 43.6993 300.425 43.6993 300.037V292.818ZM48.3266 303H46.6959L50.36 292.818H52.1348L55.7989 303H54.1682L51.2897 294.668H51.2101L48.3266 303ZM48.6 299.013H53.8898V300.305H48.6V299.013ZM65.4873 292.818V303H64.0754L58.8999 295.533H58.8055V303H57.2692V292.818H58.6911L63.8715 300.295H63.966V292.818H65.4873Z" fill="#888888"/>
<path d="M117.219 303V292.818H123.533V294.141H118.755V297.243H123.081V298.56H118.755V303H117.219ZM125.422 303V292.818H131.806V294.141H126.959V297.243H131.473V298.56H126.959V301.678H131.866V303H125.422ZM133.858 303V292.818H137.587C138.309 292.818 138.907 292.937 139.381 293.176C139.855 293.411 140.21 293.731 140.445 294.136C140.681 294.537 140.798 294.989 140.798 295.493C140.798 295.917 140.72 296.275 140.565 296.567C140.409 296.855 140.2 297.087 139.938 297.263C139.68 297.435 139.395 297.561 139.083 297.641V297.74C139.421 297.757 139.751 297.866 140.072 298.068C140.397 298.267 140.666 298.55 140.878 298.918C141.09 299.286 141.196 299.734 141.196 300.261C141.196 300.781 141.073 301.248 140.828 301.663C140.586 302.074 140.212 302.4 139.704 302.642C139.197 302.881 138.549 303 137.761 303H133.858ZM135.394 301.683H137.611C138.347 301.683 138.874 301.54 139.192 301.255C139.511 300.97 139.67 300.614 139.67 300.186C139.67 299.865 139.588 299.57 139.426 299.301C139.264 299.033 139.032 298.819 138.73 298.66C138.432 298.501 138.077 298.421 137.666 298.421H135.394V301.683ZM135.394 297.223H137.452C137.797 297.223 138.107 297.157 138.382 297.024C138.66 296.892 138.881 296.706 139.043 296.467C139.209 296.225 139.292 295.94 139.292 295.612C139.292 295.191 139.144 294.838 138.849 294.553C138.554 294.268 138.102 294.126 137.492 294.126H135.394V297.223Z" fill="#888888"/>
<path d="M191.423 292.818H193.288L196.529 300.733H196.648L199.89 292.818H201.754V303H200.293V295.632H200.198L197.195 302.985H195.982L192.979 295.627H192.885V303H191.423V292.818ZM204.848 303H203.217L206.881 292.818H208.656L212.32 303H210.689L207.811 294.668H207.731L204.848 303ZM205.121 299.013H210.411V300.305H205.121V299.013ZM213.79 303V292.818H217.42C218.209 292.818 218.863 292.954 219.384 293.226C219.907 293.498 220.298 293.874 220.557 294.354C220.815 294.832 220.945 295.384 220.945 296.01C220.945 296.633 220.814 297.182 220.552 297.656C220.293 298.126 219.902 298.492 219.379 298.754C218.858 299.016 218.204 299.147 217.415 299.147H214.665V297.825H217.276C217.773 297.825 218.177 297.753 218.489 297.611C218.804 297.468 219.034 297.261 219.18 296.989C219.326 296.718 219.398 296.391 219.398 296.01C219.398 295.625 219.324 295.292 219.175 295.011C219.029 294.729 218.799 294.513 218.484 294.364C218.172 294.212 217.763 294.136 217.256 294.136H215.327V303H213.79ZM218.817 298.406L221.332 303H219.582L217.116 298.406H218.817Z" fill="#888888"/>
<path d="M273.088 303H271.457L275.121 292.818H276.896L280.56 303H278.93L276.051 294.668H275.972L273.088 303ZM273.362 299.013H278.651V300.305H273.362V299.013ZM282.031 303V292.818H285.66C286.452 292.818 287.108 292.962 287.629 293.251C288.149 293.539 288.539 293.933 288.797 294.434C289.056 294.931 289.185 295.491 289.185 296.114C289.185 296.741 289.054 297.304 288.792 297.805C288.534 298.302 288.142 298.696 287.619 298.988C287.098 299.276 286.444 299.42 285.655 299.42H283.159V298.118H285.516C286.016 298.118 286.422 298.032 286.734 297.859C287.045 297.684 287.274 297.445 287.42 297.143C287.566 296.842 287.639 296.499 287.639 296.114C287.639 295.73 287.566 295.388 287.42 295.09C287.274 294.792 287.044 294.558 286.729 294.389C286.417 294.22 286.006 294.136 285.496 294.136H283.567V303H282.031ZM290.986 303V292.818H294.615C295.404 292.818 296.058 292.954 296.579 293.226C297.103 293.498 297.494 293.874 297.752 294.354C298.011 294.832 298.14 295.384 298.14 296.01C298.14 296.633 298.009 297.182 297.747 297.656C297.489 298.126 297.098 298.492 296.574 298.754C296.054 299.016 295.399 299.147 294.61 299.147H291.861V297.825H294.471C294.968 297.825 295.372 297.753 295.684 297.611C295.999 297.468 296.229 297.261 296.375 296.989C296.521 296.718 296.594 296.391 296.594 296.01C296.594 295.625 296.519 295.292 296.37 295.011C296.224 294.729 295.994 294.513 295.679 294.364C295.367 294.212 294.958 294.136 294.451 294.136H292.522V303H290.986ZM296.012 298.406L298.528 303H296.778L294.312 298.406H296.012Z" fill="#888888"/>
<path d="M349.163 292.818H351.027L354.268 300.733H354.388L357.629 292.818H359.494V303H358.032V295.632H357.937L354.935 302.985H353.722L350.719 295.627H350.624V303H349.163V292.818ZM362.587 303H360.956L364.62 292.818H366.395L370.059 303H368.429L365.55 294.668H365.471L362.587 303ZM362.861 299.013H368.15V300.305H362.861V299.013ZM369.705 292.818H371.45L374.11 297.447H374.219L376.879 292.818H378.624L374.93 299.003V303H373.399V299.003L369.705 292.818Z" fill="#888888"/>
<path d="M433.323 292.818H434.854V300.037C434.854 300.69 434.725 301.248 434.467 301.712C434.211 302.176 433.852 302.531 433.388 302.776C432.924 303.018 432.38 303.139 431.757 303.139C431.184 303.139 430.668 303.035 430.211 302.826C429.757 302.617 429.397 302.314 429.132 301.916C428.87 301.515 428.739 301.028 428.739 300.455H430.266C430.266 300.736 430.33 300.98 430.459 301.185C430.592 301.391 430.773 301.552 431.001 301.668C431.233 301.78 431.498 301.837 431.797 301.837C432.122 301.837 432.397 301.769 432.622 301.633C432.851 301.494 433.025 301.29 433.144 301.021C433.263 300.753 433.323 300.425 433.323 300.037V292.818ZM443.638 292.818H445.179V299.515C445.179 300.228 445.012 300.859 444.677 301.409C444.342 301.956 443.872 302.387 443.265 302.702C442.658 303.013 441.948 303.169 441.132 303.169C440.32 303.169 439.611 303.013 439.004 302.702C438.398 302.387 437.927 301.956 437.592 301.409C437.258 300.859 437.09 300.228 437.09 299.515V292.818H438.627V299.391C438.627 299.851 438.728 300.261 438.93 300.619C439.135 300.977 439.425 301.258 439.8 301.464C440.174 301.666 440.618 301.767 441.132 301.767C441.649 301.767 442.095 301.666 442.47 301.464C442.847 301.258 443.136 300.977 443.335 300.619C443.537 300.261 443.638 299.851 443.638 299.391V292.818ZM455.631 292.818V303H454.219L449.043 295.533H448.949V303H447.413V292.818H448.834L454.015 300.295H454.109V292.818H455.631Z" fill="#888888"/>
<path d="M511.101 292.818H512.633V300.037C512.633 300.69 512.503 301.248 512.245 301.712C511.99 302.176 511.63 302.531 511.166 302.776C510.702 303.018 510.158 303.139 509.535 303.139C508.962 303.139 508.447 303.035 507.989 302.826C507.535 302.617 507.175 302.314 506.91 301.916C506.648 301.515 506.518 301.028 506.518 300.455H508.044C508.044 300.736 508.108 300.98 508.238 301.185C508.37 301.391 508.551 301.552 508.78 301.668C509.012 301.78 509.277 301.837 509.575 301.837C509.9 301.837 510.175 301.769 510.4 301.633C510.629 301.494 510.803 301.29 510.922 301.021C511.042 300.753 511.101 300.425 511.101 300.037V292.818ZM521.416 292.818H522.957V299.515C522.957 300.228 522.79 300.859 522.455 301.409C522.121 301.956 521.65 302.387 521.043 302.702C520.437 303.013 519.726 303.169 518.911 303.169C518.098 303.169 517.389 303.013 516.783 302.702C516.176 302.387 515.705 301.956 515.371 301.409C515.036 300.859 514.869 300.228 514.869 299.515V292.818H516.405V299.391C516.405 299.851 516.506 300.261 516.708 300.619C516.914 300.977 517.204 301.258 517.578 301.464C517.953 301.666 518.397 301.767 518.911 301.767C519.428 301.767 519.873 301.666 520.248 301.464C520.626 301.258 520.914 300.977 521.113 300.619C521.315 300.261 521.416 299.851 521.416 299.391V292.818ZM525.191 303V292.818H526.727V301.678H531.341V303H525.191Z" fill="#888888"/>
<path d="M583.173 303H581.542L585.206 292.818H586.981L590.645 303H589.015L586.136 294.668H586.057L583.173 303ZM583.446 299.013H588.736V300.305H583.446V299.013ZM598.663 292.818H600.204V299.515C600.204 300.228 600.037 300.859 599.702 301.409C599.368 301.956 598.897 302.387 598.29 302.702C597.684 303.013 596.973 303.169 596.158 303.169C595.346 303.169 594.636 303.013 594.03 302.702C593.423 302.387 592.953 301.956 592.618 301.409C592.283 300.859 592.116 300.228 592.116 299.515V292.818H593.652V299.391C593.652 299.851 593.753 300.261 593.955 300.619C594.161 300.977 594.451 301.258 594.825 301.464C595.2 301.666 595.644 301.767 596.158 301.767C596.675 301.767 597.12 301.666 597.495 301.464C597.873 301.258 598.161 300.977 598.36 300.619C598.562 300.261 598.663 299.851 598.663 299.391V292.818ZM609.329 296.035C609.232 295.733 609.103 295.463 608.941 295.224C608.782 294.982 608.591 294.777 608.369 294.608C608.147 294.436 607.893 294.305 607.608 294.215C607.327 294.126 607.017 294.081 606.679 294.081C606.105 294.081 605.588 294.228 605.128 294.523C604.667 294.818 604.302 295.251 604.034 295.821C603.769 296.388 603.636 297.082 603.636 297.904C603.636 298.729 603.77 299.427 604.039 299.997C604.307 300.567 604.675 301 605.142 301.295C605.61 301.59 606.142 301.737 606.738 301.737C607.292 301.737 607.774 301.625 608.185 301.399C608.599 301.174 608.919 300.856 609.145 300.445C609.373 300.03 609.488 299.543 609.488 298.983L609.885 299.058H606.972V297.79H610.974V298.948C610.974 299.803 610.792 300.546 610.427 301.175C610.066 301.802 609.566 302.286 608.926 302.627C608.29 302.969 607.56 303.139 606.738 303.139C605.817 303.139 605.008 302.927 604.312 302.503C603.62 302.079 603.079 301.477 602.691 300.698C602.304 299.916 602.11 298.988 602.11 297.914C602.11 297.102 602.223 296.373 602.448 295.727C602.673 295.08 602.99 294.532 603.397 294.081C603.808 293.627 604.291 293.281 604.844 293.042C605.401 292.8 606.009 292.679 606.669 292.679C607.219 292.679 607.731 292.76 608.205 292.923C608.682 293.085 609.107 293.315 609.478 293.614C609.852 293.912 610.162 294.267 610.407 294.678C610.653 295.085 610.818 295.538 610.905 296.035H609.329Z" fill="#888888"/>
<path d="M667.972 295.493C667.919 295.022 667.7 294.658 667.315 294.399C666.931 294.137 666.447 294.006 665.864 294.006C665.446 294.006 665.085 294.073 664.78 294.205C664.475 294.335 664.238 294.513 664.069 294.742C663.903 294.968 663.82 295.224 663.82 295.513C663.82 295.755 663.877 295.964 663.989 296.139C664.105 296.315 664.256 296.462 664.442 296.582C664.631 296.698 664.833 296.795 665.048 296.875C665.264 296.951 665.471 297.014 665.67 297.064L666.664 297.322C666.989 297.402 667.322 297.51 667.663 297.646C668.005 297.781 668.321 297.96 668.613 298.183C668.905 298.405 669.14 298.68 669.319 299.008C669.501 299.336 669.592 299.729 669.592 300.186C669.592 300.763 669.443 301.275 669.145 301.722C668.85 302.17 668.421 302.523 667.857 302.781C667.297 303.04 666.619 303.169 665.824 303.169C665.062 303.169 664.402 303.048 663.845 302.806C663.288 302.564 662.853 302.221 662.538 301.777C662.223 301.33 662.049 300.799 662.016 300.186H663.557C663.587 300.554 663.706 300.861 663.915 301.106C664.127 301.348 664.397 301.528 664.725 301.648C665.057 301.764 665.42 301.822 665.814 301.822C666.248 301.822 666.634 301.754 666.972 301.618C667.314 301.479 667.582 301.286 667.778 301.041C667.973 300.793 668.071 300.503 668.071 300.171C668.071 299.87 667.985 299.623 667.813 299.43C667.644 299.238 667.413 299.079 667.122 298.953C666.833 298.827 666.507 298.716 666.142 298.62L664.939 298.292C664.124 298.07 663.477 297.743 663 297.312C662.526 296.882 662.289 296.312 662.289 295.602C662.289 295.016 662.448 294.504 662.766 294.066C663.085 293.629 663.515 293.289 664.059 293.047C664.603 292.802 665.216 292.679 665.899 292.679C666.588 292.679 667.196 292.8 667.723 293.042C668.253 293.284 668.671 293.617 668.976 294.041C669.281 294.462 669.44 294.946 669.453 295.493H667.972ZM671.428 303V292.818H677.812V294.141H672.964V297.243H677.479V298.56H672.964V301.678H677.871V303H671.428ZM679.864 303V292.818H683.493C684.285 292.818 684.941 292.962 685.462 293.251C685.982 293.539 686.372 293.933 686.63 294.434C686.889 294.931 687.018 295.491 687.018 296.114C687.018 296.741 686.887 297.304 686.625 297.805C686.367 298.302 685.975 298.696 685.452 298.988C684.931 299.276 684.277 299.42 683.488 299.42H680.992V298.118H683.349C683.849 298.118 684.255 298.032 684.567 297.859C684.878 297.684 685.107 297.445 685.253 297.143C685.399 296.842 685.472 296.499 685.472 296.114C685.472 295.73 685.399 295.388 685.253 295.09C685.107 294.792 684.877 294.558 684.562 294.389C684.25 294.22 683.839 294.136 683.329 294.136H681.4V303H679.864Z" fill="#888888"/>
<path d="M747.376 297.909C747.376 298.996 747.177 299.931 746.78 300.713C746.382 301.492 745.837 302.092 745.144 302.513C744.455 302.93 743.671 303.139 742.792 303.139C741.911 303.139 741.124 302.93 740.431 302.513C739.741 302.092 739.198 301.49 738.8 300.708C738.402 299.926 738.204 298.993 738.204 297.909C738.204 296.822 738.402 295.889 738.8 295.11C739.198 294.328 739.741 293.728 740.431 293.31C741.124 292.889 741.911 292.679 742.792 292.679C743.671 292.679 744.455 292.889 745.144 293.31C745.837 293.728 746.382 294.328 746.78 295.11C747.177 295.889 747.376 296.822 747.376 297.909ZM745.855 297.909C745.855 297.08 745.721 296.383 745.452 295.816C745.187 295.246 744.822 294.815 744.358 294.523C743.898 294.228 743.376 294.081 742.792 294.081C742.206 294.081 741.682 294.228 741.221 294.523C740.761 294.815 740.396 295.246 740.128 295.816C739.862 296.383 739.73 297.08 739.73 297.909C739.73 298.738 739.862 299.437 740.128 300.007C740.396 300.574 740.761 301.005 741.221 301.3C741.682 301.591 742.206 301.737 742.792 301.737C743.376 301.737 743.898 301.591 744.358 301.3C744.822 301.005 745.187 300.574 745.452 300.007C745.721 299.437 745.855 298.738 745.855 297.909ZM757.748 296.129H756.197C756.137 295.798 756.026 295.506 755.864 295.254C755.701 295.002 755.503 294.789 755.267 294.613C755.032 294.437 754.768 294.305 754.477 294.215C754.188 294.126 753.882 294.081 753.557 294.081C752.97 294.081 752.445 294.228 751.981 294.523C751.52 294.818 751.156 295.251 750.887 295.821C750.622 296.391 750.49 297.087 750.49 297.909C750.49 298.738 750.622 299.437 750.887 300.007C751.156 300.577 751.522 301.008 751.986 301.3C752.45 301.591 752.972 301.737 753.552 301.737C753.874 301.737 754.179 301.694 754.467 301.608C754.759 301.518 755.022 301.388 755.257 301.215C755.493 301.043 755.692 300.832 755.854 300.584C756.02 300.332 756.134 300.044 756.197 299.719L757.748 299.724C757.665 300.224 757.505 300.685 757.266 301.106C757.031 301.523 756.727 301.885 756.356 302.19C755.988 302.491 755.567 302.725 755.093 302.891C754.619 303.056 754.102 303.139 753.542 303.139C752.661 303.139 751.875 302.93 751.186 302.513C750.496 302.092 749.953 301.49 749.555 300.708C749.161 299.926 748.963 298.993 748.963 297.909C748.963 296.822 749.162 295.889 749.56 295.11C749.958 294.328 750.501 293.728 751.191 293.31C751.88 292.889 752.664 292.679 753.542 292.679C754.082 292.679 754.586 292.757 755.054 292.913C755.524 293.065 755.947 293.29 756.321 293.589C756.696 293.884 757.006 294.245 757.251 294.673C757.496 295.097 757.662 295.582 757.748 296.129ZM759.084 294.141V292.818H766.964V294.141H763.787V303H762.256V294.141H759.084Z" fill="#888888"/>
<path d="M825.579 292.818V303H824.167L818.991 295.533H818.897V303H817.361V292.818H818.783L823.963 300.295H824.058V292.818H825.579ZM836.664 297.909C836.664 298.996 836.465 299.931 836.068 300.713C835.67 301.492 835.125 302.092 834.432 302.513C833.743 302.93 832.959 303.139 832.08 303.139C831.199 303.139 830.412 302.93 829.719 302.513C829.03 302.092 828.486 301.49 828.088 300.708C827.691 299.926 827.492 298.993 827.492 297.909C827.492 296.822 827.691 295.889 828.088 295.11C828.486 294.328 829.03 293.728 829.719 293.31C830.412 292.889 831.199 292.679 832.08 292.679C832.959 292.679 833.743 292.889 834.432 293.31C835.125 293.728 835.67 294.328 836.068 295.11C836.465 295.889 836.664 296.822 836.664 297.909ZM835.143 297.909C835.143 297.08 835.009 296.383 834.74 295.816C834.475 295.246 834.11 294.815 833.646 294.523C833.186 294.228 832.664 294.081 832.08 294.081C831.494 294.081 830.97 294.228 830.509 294.523C830.049 294.815 829.684 295.246 829.416 295.816C829.151 296.383 829.018 297.08 829.018 297.909C829.018 298.738 829.151 299.437 829.416 300.007C829.684 300.574 830.049 301.005 830.509 301.3C830.97 301.591 831.494 301.737 832.08 301.737C832.664 301.737 833.186 301.591 833.646 301.3C834.11 301.005 834.475 300.574 834.74 300.007C835.009 299.437 835.143 298.738 835.143 297.909ZM838.964 292.818L841.797 301.111H841.912L844.746 292.818H846.406L842.742 303H840.967L837.303 292.818H838.964Z" fill="#888888"/>
<path d="M900.498 303H897.202V292.818H900.602C901.6 292.818 902.457 293.022 903.172 293.43C903.888 293.834 904.437 294.416 904.818 295.175C905.203 295.93 905.395 296.837 905.395 297.894C905.395 298.955 905.201 299.866 904.813 300.629C904.429 301.391 903.872 301.978 903.143 302.388C902.414 302.796 901.532 303 900.498 303ZM898.738 301.658H900.413C901.189 301.658 901.833 301.512 902.347 301.22C902.861 300.925 903.245 300.499 903.501 299.942C903.756 299.382 903.883 298.7 903.883 297.894C903.883 297.095 903.756 296.418 903.501 295.861C903.249 295.304 902.873 294.881 902.372 294.593C901.872 294.305 901.25 294.161 900.508 294.161H898.738V301.658ZM907.305 303V292.818H913.689V294.141H908.841V297.243H913.356V298.56H908.841V301.678H913.748V303H907.305ZM924.197 296.129H922.646C922.587 295.798 922.476 295.506 922.313 295.254C922.151 295.002 921.952 294.789 921.717 294.613C921.481 294.437 921.218 294.305 920.926 294.215C920.638 294.126 920.331 294.081 920.006 294.081C919.42 294.081 918.894 294.228 918.43 294.523C917.97 294.818 917.605 295.251 917.337 295.821C917.071 296.391 916.939 297.087 916.939 297.909C916.939 298.738 917.071 299.437 917.337 300.007C917.605 300.577 917.971 301.008 918.435 301.3C918.899 301.591 919.421 301.737 920.001 301.737C920.323 301.737 920.628 301.694 920.916 301.608C921.208 301.518 921.471 301.388 921.707 301.215C921.942 301.043 922.141 300.832 922.303 300.584C922.469 300.332 922.583 300.044 922.646 299.719L924.197 299.724C924.114 300.224 923.954 300.685 923.715 301.106C923.48 301.523 923.177 301.885 922.805 302.19C922.437 302.491 922.016 302.725 921.543 302.891C921.069 303.056 920.552 303.139 919.991 303.139C919.11 303.139 918.324 302.93 917.635 302.513C916.945 302.092 916.402 301.49 916.004 300.708C915.61 299.926 915.413 298.993 915.413 297.909C915.413 296.822 915.611 295.889 916.009 295.11C916.407 294.328 916.95 293.728 917.64 293.31C918.329 292.889 919.113 292.679 919.991 292.679C920.532 292.679 921.035 292.757 921.503 292.913C921.973 293.065 922.396 293.29 922.771 293.589C923.145 293.884 923.455 294.245 923.7 294.673C923.945 295.097 924.111 295.582 924.197 296.129Z" fill="#888888"/>
</svg>
