<svg width="38" height="31" viewBox="0 0 38 31" fill="none" xmlns="http://www.w3.org/2000/svg">
<path d="M24.9169 12.7909L19.7048 18.003C19.3927 17.92 19.0715 17.8759 18.7486 17.8717C17.7541 17.8717 16.8004 18.2668 16.0971 18.97C15.3939 19.6732 14.9989 20.6269 14.9989 21.6214C15.0031 21.9443 15.0471 22.2655 15.1301 22.5776L13.6677 24.04C13.492 24.2143 13.3525 24.4216 13.2573 24.6501C13.1622 24.8786 13.1132 25.1236 13.1132 25.3711C13.1132 25.6186 13.1622 25.8637 13.2573 26.0922C13.3525 26.3206 13.492 26.528 13.6677 26.7023C13.842 26.878 14.0494 27.0175 14.2779 27.1127C14.5063 27.2079 14.7514 27.2569 14.9989 27.2569C15.2464 27.2569 15.4914 27.2079 15.7199 27.1127C15.9484 27.0175 16.1557 26.878 16.33 26.7023L17.7924 25.2399C18.1045 25.3229 18.4257 25.367 18.7486 25.3711C19.7431 25.3711 20.6968 24.9761 21.4 24.2729C22.1032 23.5697 22.4983 22.6159 22.4983 21.6214C22.4941 21.2985 22.45 20.9774 22.3671 20.6653L27.5791 15.4532C27.9322 15.1001 28.1305 14.6213 28.1305 14.122C28.1305 13.6227 27.9322 13.1439 27.5791 12.7909C27.2261 12.4378 26.7473 12.2395 26.248 12.2395C25.7487 12.2395 25.2699 12.4378 24.9169 12.7909ZM18.7486 0.998047C16.2865 0.998047 13.8485 1.48299 11.5738 2.42519C9.29916 3.3674 7.23234 4.7484 5.49138 6.48936C1.97534 10.0054 5.74608e-05 14.7742 5.74608e-05 19.7466C-0.00917542 23.4599 1.09445 27.0907 3.16856 30.1708C3.44702 30.5835 3.87801 30.8687 4.36674 30.9636C4.85547 31.0585 5.3619 30.9554 5.77461 30.677C6.18732 30.3985 6.47251 29.9675 6.56744 29.4788C6.66237 28.9901 6.55927 28.4836 6.28082 28.0709C4.77065 25.8127 3.90215 23.1868 3.76805 20.4735C3.63395 17.7602 4.23928 15.0614 5.51941 12.6653C6.79954 10.2692 8.7064 8.26579 11.0364 6.86894C13.3664 5.47209 16.032 4.73427 18.7486 4.73427C21.4652 4.73427 24.1308 5.47209 26.4608 6.86894C28.7908 8.26579 30.6976 10.2692 31.9778 12.6653C33.2579 15.0614 33.8632 17.7602 33.7291 20.4735C33.595 23.1868 32.7265 25.8127 31.2164 28.0709C31.0782 28.2752 30.9817 28.5047 30.9323 28.7463C30.883 28.9879 30.8818 29.2369 30.9288 29.479C30.9758 29.7211 31.0701 29.9515 31.2063 30.1571C31.3426 30.3626 31.518 30.5393 31.7226 30.677C32.0329 30.8855 32.3986 30.9965 32.7725 30.9957C33.0796 30.9962 33.3821 30.9212 33.6535 30.7773C33.9248 30.6335 34.1566 30.4252 34.3286 30.1708C36.4027 27.0907 37.5064 23.4599 37.4971 19.7466C37.4971 14.7742 35.5218 10.0054 32.0058 6.48936C28.4898 2.97333 23.721 0.998047 18.7486 0.998047Z" fill="#49C9E4"/>
</svg>
