<svg width="22" height="22" viewBox="0 0 22 22" fill="none" xmlns="http://www.w3.org/2000/svg">
<path d="M16.5 8.5L11 11L5.5 8.5" stroke="#4A4AFF" stroke-width="1.5" stroke-linecap="round" stroke-linejoin="round"/>
<path d="M6.16999 15.7968L5.85874 16.4792L6.16999 15.7968ZM11.83 17.6214L12.1413 18.3038L11.83 17.6214ZM10.17 17.6214L9.85874 18.3038L10.17 17.6214ZM15.83 15.7968L15.5188 15.1145L15.83 15.7968ZM15.83 7.20316L15.5188 7.88553L15.83 7.20316ZM11.5188 6.06097L15.5188 7.88553L16.1413 6.5208L12.1413 4.69624L11.5188 6.06097ZM6.48124 7.88553L10.4812 6.06097L9.85874 4.69624L5.85874 6.5208L6.48124 7.88553ZM15.5188 15.1145L11.5188 16.939L12.1413 18.3038L16.1413 16.4792L15.5188 15.1145ZM10.4812 16.939L6.48124 15.1145L5.85874 16.4792L9.85874 18.3038L10.4812 16.939ZM17.75 13.9772V9.0228H16.25V13.9772H17.75ZM5.75 13.9772V9.0228H4.25V13.9772H5.75ZM6.48124 15.1145C6.03581 14.9113 5.75 14.4668 5.75 13.9772H4.25C4.25 15.0543 4.87879 16.0322 5.85874 16.4792L6.48124 15.1145ZM11.5188 16.939C11.1892 17.0893 10.8108 17.0893 10.4812 16.939L9.85874 18.3038C10.5837 18.6344 11.4163 18.6344 12.1413 18.3038L11.5188 16.939ZM16.1413 16.4792C17.1212 16.0322 17.75 15.0543 17.75 13.9772H16.25C16.25 14.4668 15.9642 14.9113 15.5188 15.1145L16.1413 16.4792ZM5.85874 6.5208C4.87879 6.96779 4.25 7.94572 4.25 9.0228H5.75C5.75 8.53322 6.03581 8.08871 6.48124 7.88553L5.85874 6.5208ZM15.5188 7.88553C15.9642 8.08871 16.25 8.53322 16.25 9.0228H17.75C17.75 7.94572 17.1212 6.96779 16.1413 6.5208L15.5188 7.88553ZM12.1413 4.69624C11.4163 4.36557 10.5837 4.36557 9.85874 4.69624L10.4812 6.06097C10.8108 5.91066 11.1892 5.91066 11.5188 6.06097L12.1413 4.69624Z" fill="#4A4AFF"/>
<path d="M11 11V17" stroke="#4A4AFF" stroke-width="1.5" stroke-linecap="round" stroke-linejoin="round"/>
<path d="M11 1V2" stroke="#4A4AFF" stroke-width="1.5" stroke-linecap="round" stroke-linejoin="round"/>
<path d="M11 20V21" stroke="#4A4AFF" stroke-width="1.5" stroke-linecap="round" stroke-linejoin="round"/>
<path d="M19.0713 2.92871L18.3642 3.63582" stroke="#4A4AFF" stroke-width="1.5" stroke-linecap="round" stroke-linejoin="round"/>
<path d="M3.63574 18.3643L2.92864 19.0714" stroke="#4A4AFF" stroke-width="1.5" stroke-linecap="round" stroke-linejoin="round"/>
<path d="M21 11L20 11" stroke="#4A4AFF" stroke-width="1.5" stroke-linecap="round" stroke-linejoin="round"/>
<path d="M2 11L1 11" stroke="#4A4AFF" stroke-width="1.5" stroke-linecap="round" stroke-linejoin="round"/>
<path d="M19.0713 19.0713L18.3642 18.3642" stroke="#4A4AFF" stroke-width="1.5" stroke-linecap="round" stroke-linejoin="round"/>
<path d="M3.63574 3.63574L2.92864 2.92864" stroke="#4A4AFF" stroke-width="1.5" stroke-linecap="round" stroke-linejoin="round"/>
</svg>
