<svg width="26" height="31" viewBox="0 0 26 31" fill="none" xmlns="http://www.w3.org/2000/svg">
<path d="M22.5547 10.6035L23.99 9.18396C24.287 8.88696 24.4538 8.48414 24.4538 8.06411C24.4538 7.64409 24.287 7.24127 23.99 6.94427C23.693 6.64727 23.2901 6.48041 22.8701 6.48041C22.4501 6.48041 22.0473 6.64727 21.7503 6.94427L20.3308 8.37956C18.1203 6.6696 15.4048 5.74183 12.6101 5.74183C9.8155 5.74183 7.09993 6.6696 4.88951 8.37956L3.45421 6.9285C3.15512 6.63149 2.75029 6.46547 2.32879 6.46695C1.90729 6.46843 1.50364 6.63729 1.20663 6.93638C0.909634 7.23547 0.743611 7.6403 0.74509 8.0618C0.746569 8.48331 0.915428 8.88696 1.21452 9.18396L2.66559 10.6193C0.935373 12.8235 -0.00344339 15.5455 4.13696e-05 18.3478C-0.00510942 20.3594 0.470792 22.3432 1.38806 24.1335C2.30532 25.9239 3.63736 27.469 5.27308 28.64C6.9088 29.811 8.80079 30.5739 10.7913 30.8651C12.7817 31.1563 14.813 30.9674 16.7156 30.3142C18.6183 29.6609 20.3371 28.5622 21.7289 27.1096C23.1206 25.6571 24.1449 23.8928 24.7163 21.964C25.2876 20.0352 25.3896 17.9978 25.0136 16.0215C24.6375 14.0453 23.7945 12.1877 22.5547 10.6035ZM12.618 27.8112C10.7463 27.8112 8.91665 27.2562 7.36039 26.2164C5.80413 25.1765 4.59117 23.6985 3.8749 21.9693C3.15863 20.2401 2.97122 18.3373 3.33637 16.5015C3.70152 14.6658 4.60283 12.9796 5.92632 11.6561C7.24982 10.3326 8.93605 9.43127 10.7718 9.06612C12.6075 8.70097 14.5103 8.88838 16.2395 9.60465C17.9688 10.3209 19.4468 11.5339 20.4866 13.0901C21.5265 14.6464 22.0815 16.4761 22.0815 18.3478C22.0815 20.8576 21.0845 23.2647 19.3097 25.0395C17.535 26.8142 15.1279 27.8112 12.618 27.8112ZM9.46352 4.15254H15.7725C16.1908 4.15254 16.592 3.98637 16.8878 3.69058C17.1836 3.39478 17.3498 2.99361 17.3498 2.57529C17.3498 2.15698 17.1836 1.7558 16.8878 1.46001C16.592 1.16422 16.1908 0.998047 15.7725 0.998047H9.46352C9.04521 0.998047 8.64403 1.16422 8.34824 1.46001C8.05245 1.7558 7.88628 2.15698 7.88628 2.57529C7.88628 2.99361 8.05245 3.39478 8.34824 3.69058C8.64403 3.98637 9.04521 4.15254 9.46352 4.15254ZM14.1953 13.616C14.1953 13.1977 14.0291 12.7965 13.7333 12.5007C13.4375 12.2049 13.0363 12.0388 12.618 12.0388C12.1997 12.0388 11.7985 12.2049 11.5027 12.5007C11.2069 12.7965 11.0408 13.1977 11.0408 13.616V16.597C10.6836 16.9165 10.4319 17.3368 10.3189 17.8024C10.2059 18.2681 10.2369 18.757 10.4079 19.2046C10.5789 19.6522 10.8817 20.0374 11.2764 20.3091C11.671 20.5808 12.1389 20.7263 12.618 20.7263C13.0972 20.7263 13.565 20.5808 13.9597 20.3091C14.3543 20.0374 14.6572 19.6522 14.8281 19.2046C14.9991 18.757 15.0302 18.2681 14.9171 17.8024C14.8041 17.3368 14.5524 16.9165 14.1953 16.597V13.616Z" fill="#3A87CF"/>
</svg>
