<svg width="36" height="32" viewBox="0 0 36 32" fill="none" xmlns="http://www.w3.org/2000/svg">
<path d="M14.3333 18.3333C13.781 18.3333 13.3333 18.781 13.3333 19.3333C13.3333 19.8856 13.781 20.3333 14.3333 20.3333V18.3333ZM21 20.3333C21.5523 20.3333 22 19.8856 22 19.3333C22 18.781 21.5523 18.3333 21 18.3333V20.3333ZM4.33333 15.3333H31V13.3333H4.33333V15.3333ZM33.3333 17.6667V24.3333H35.3333V17.6667H33.3333ZM27.6667 30H7.66667V32H27.6667V30ZM2 24.3333V17.6667H0V24.3333H2ZM7.66667 30C4.53705 30 2 27.4629 2 24.3333H0C0 28.5675 3.43248 32 7.66667 32V30ZM33.3333 24.3333C33.3333 27.4629 30.7963 30 27.6667 30V32C31.9008 32 35.3333 28.5675 35.3333 24.3333H33.3333ZM31 15.3333C32.2887 15.3333 33.3333 16.378 33.3333 17.6667H35.3333C35.3333 15.2734 33.3932 13.3333 31 13.3333V15.3333ZM4.33333 13.3333C1.9401 13.3333 0 15.2734 0 17.6667H2C2 16.378 3.04467 15.3333 4.33333 15.3333V13.3333ZM7.66667 8.66667H27.6667V6.66667H7.66667V8.66667ZM30 11V14.3333H32V11H30ZM5.33333 14.3333V11H3.33333V14.3333H5.33333ZM27.6667 8.66667C28.9553 8.66667 30 9.71134 30 11H32C32 8.60677 30.0599 6.66667 27.6667 6.66667V8.66667ZM7.66667 6.66667C5.27343 6.66667 3.33333 8.60677 3.33333 11H5.33333C5.33333 9.71134 6.378 8.66667 7.66667 8.66667V6.66667ZM11 2H24.3333V0H11V2ZM26.6667 4.33333V7.66667H28.6667V4.33333H26.6667ZM8.66667 7.66667V4.33333H6.66667V7.66667H8.66667ZM24.3333 2C25.622 2 26.6667 3.04467 26.6667 4.33333H28.6667C28.6667 1.9401 26.7266 0 24.3333 0V2ZM11 0C8.60677 0 6.66667 1.9401 6.66667 4.33333H8.66667C8.66667 3.04467 9.71134 2 11 2V0ZM14.3333 20.3333H21V18.3333H14.3333V20.3333Z" fill="#4A4AFF"/>
</svg>
