<svg width="24" height="25" viewBox="0 0 24 25" fill="none" xmlns="http://www.w3.org/2000/svg">
<path d="M8.59194 16.3343C8.02728 16.3343 7.56952 16.7921 7.56952 17.3567C7.56952 17.9214 8.02728 18.3792 8.59194 18.3792H10.9776V20.7648C10.9776 21.3295 11.4353 21.7872 12 21.7872C12.5647 21.7872 13.0224 21.3295 13.0224 20.7648V18.3792H15.4081C15.9728 18.3792 16.4305 17.9214 16.4305 17.3567C16.4305 16.7921 15.9728 16.3343 15.4081 16.3343H13.0224V13.9487C13.0224 13.384 12.5647 12.9262 12 12.9262C11.4353 12.9262 10.9776 13.384 10.9776 13.9487V16.3343H8.59194Z" fill="#08102E"/>
<path fill-rule="evenodd" clip-rule="evenodd" d="M5.52468 2.98992V4.6773C5.02125 4.71527 4.51808 4.75767 4.01521 4.80451C1.73986 5.01643 0 6.92586 0 9.21106V20.0495C0 22.3347 1.73986 24.2441 4.01521 24.456C9.32691 24.9508 14.6731 24.9508 19.9848 24.456C22.2601 24.2441 24 22.3347 24 20.0495V9.21106C24 6.92586 22.2601 5.01643 19.9848 4.80451C19.4819 4.75767 18.9788 4.71527 18.4754 4.67731V2.98992C18.4754 1.80903 17.6114 0.805836 16.4436 0.630663L14.7806 0.381209C12.9372 0.104701 11.0629 0.104701 9.21946 0.38121L7.55644 0.630663C6.38862 0.805836 5.52468 1.80903 5.52468 2.98992ZM14.4772 2.40343C12.8349 2.15709 11.1651 2.15709 9.52279 2.40343L7.85977 2.65288C7.69294 2.67791 7.56952 2.82122 7.56952 2.98992V4.54753C10.5212 4.39545 13.4788 4.39545 16.4305 4.54753V2.98992C16.4305 2.82122 16.3071 2.67791 16.1403 2.65288L14.4772 2.40343ZM19.7952 6.84054C14.6096 6.35757 9.39039 6.35757 4.20484 6.84054C2.98081 6.95454 2.04484 7.98173 2.04484 9.21106V9.51816H21.9552V9.21106C21.9552 7.98173 21.0192 6.95454 19.7952 6.84054ZM21.9552 11.563H2.04484V20.0495C2.04484 21.2788 2.98081 22.306 4.20484 22.42C9.39039 22.903 14.6096 22.903 19.7952 22.42C21.0192 22.306 21.9552 21.2788 21.9552 20.0495V11.563Z" fill="#08102E"/>
</svg>
