<svg width="20" height="20" viewBox="0 0 20 20" fill="none" xmlns="http://www.w3.org/2000/svg">
<path d="M6 14C8.94583 12.6802 10.6997 12.6532 14 14" stroke="#FF4A4A" stroke-width="1.5" stroke-linecap="round" stroke-linejoin="round"/>
<circle r="3" transform="matrix(1 0 0 -1 10 7)" stroke="#FF4A4A" stroke-width="1.5" stroke-linejoin="round"/>
<path d="M18.0456 11.834C17.9539 12.238 18.2071 12.6397 18.611 12.7314C19.015 12.8231 19.4167 12.5699 19.5084 12.166L18.0456 11.834ZM12.166 19.5084C12.5699 19.4167 12.8231 19.015 12.7314 18.611C12.6397 18.2071 12.238 17.9539 11.834 18.0456L12.166 19.5084ZM19.75 10C19.75 4.61522 15.3848 0.25 10 0.25V1.75C14.5563 1.75 18.25 5.44365 18.25 10H19.75ZM10 0.25C4.61522 0.25 0.25 4.61522 0.25 10H1.75C1.75 5.44365 5.44365 1.75 10 1.75V0.25ZM0.25 10C0.25 15.3848 4.61522 19.75 10 19.75V18.25C5.44365 18.25 1.75 14.5563 1.75 10H0.25ZM19.5084 12.166C19.6666 11.4687 19.75 10.7436 19.75 10H18.25C18.25 10.6312 18.1793 11.2449 18.0456 11.834L19.5084 12.166ZM10 19.75C10.7436 19.75 11.4687 19.6666 12.166 19.5084L11.834 18.0456C11.2449 18.1793 10.6312 18.25 10 18.25V19.75Z" fill="#FF4A4A"/>
<path d="M17 15V19" stroke="#FF4A4A" stroke-width="1.5" stroke-linecap="round"/>
<path d="M19 17L15 17" stroke="#FF4A4A" stroke-width="1.5" stroke-linecap="round"/>
</svg>
