<svg width="26" height="25" viewBox="0 0 26 25" fill="none" xmlns="http://www.w3.org/2000/svg">
<path d="M2.02219 1.35742H23.9778C24.1758 1.35742 24.3696 1.41494 24.5356 1.523C24.7015 1.63105 24.8325 1.78498 24.9126 1.96608C24.9927 2.14719 25.0185 2.34766 24.9868 2.54314C24.9552 2.73862 24.8674 2.92069 24.7342 3.06722L16.3324 12.3091C16.1614 12.4973 16.0666 12.7425 16.0666 12.9967V20.2321C16.0666 20.4003 16.025 20.566 15.9456 20.7144C15.8662 20.8628 15.7514 20.9892 15.6114 21.0826L11.5226 23.8084C11.3687 23.9111 11.1898 23.97 11.005 23.9789C10.8202 23.9878 10.6364 23.9464 10.4733 23.8591C10.3102 23.7718 10.1738 23.6419 10.0787 23.4832C9.98363 23.3245 9.93342 23.1429 9.93342 22.9579V12.9967C9.93342 12.7425 9.83864 12.4973 9.66758 12.3091L1.26583 3.06722C1.13262 2.92069 1.04484 2.73862 1.01316 2.54314C0.981486 2.34766 1.00727 2.14719 1.08738 1.96608C1.1675 1.78498 1.29849 1.63105 1.46444 1.523C1.6304 1.41494 1.82416 1.35742 2.02219 1.35742V1.35742Z" stroke="#4A4AFF" stroke-width="2" stroke-linecap="round" stroke-linejoin="round"/>
</svg>
