<svg width="21" height="18" viewBox="0 0 21 18" fill="none" xmlns="http://www.w3.org/2000/svg">
<path fill-rule="evenodd" clip-rule="evenodd" d="M9.1499 4.00039C9.1499 1.87409 10.8736 0.150391 12.9999 0.150391C14.8341 0.150391 16.3688 1.43308 16.7558 3.15039H19.9999C20.4693 3.15039 20.8499 3.53095 20.8499 4.00039C20.8499 4.46983 20.4693 4.85039 19.9999 4.85039H16.7558C16.3688 6.5677 14.8341 7.85039 12.9999 7.85039C10.8736 7.85039 9.1499 6.12669 9.1499 4.00039ZM12.9999 1.85039C14.1873 1.85039 15.1499 2.81298 15.1499 4.00039C15.1499 5.1878 14.1873 6.15039 12.9999 6.15039C11.8125 6.15039 10.8499 5.1878 10.8499 4.00039C10.8499 2.81298 11.8125 1.85039 12.9999 1.85039ZM0.999902 3.15039C0.53046 3.15039 0.149902 3.53095 0.149902 4.00039C0.149902 4.46983 0.53046 4.85039 0.999902 4.85039H6.9999C7.46934 4.85039 7.8499 4.46983 7.8499 4.00039C7.8499 3.53095 7.46934 3.15039 6.9999 3.15039H0.999902ZM0.999902 13.1504C0.53046 13.1504 0.149902 13.5309 0.149902 14.0004C0.149902 14.4698 0.53046 14.8504 0.999902 14.8504H4.24405C4.63104 16.5677 6.16568 17.8504 7.9999 17.8504C10.1262 17.8504 11.8499 16.1267 11.8499 14.0004C11.8499 11.8741 10.1262 10.1504 7.9999 10.1504C6.16568 10.1504 4.63104 11.4331 4.24405 13.1504H0.999902ZM5.8499 14.0004C5.8499 15.1878 6.81249 16.1504 7.9999 16.1504C9.18731 16.1504 10.1499 15.1878 10.1499 14.0004C10.1499 12.813 9.18731 11.8504 7.9999 11.8504C6.81249 11.8504 5.8499 12.813 5.8499 14.0004ZM13.9999 13.1504C13.5305 13.1504 13.1499 13.5309 13.1499 14.0004C13.1499 14.4698 13.5305 14.8504 13.9999 14.8504H19.9999C20.4693 14.8504 20.8499 14.4698 20.8499 14.0004C20.8499 13.5309 20.4693 13.1504 19.9999 13.1504H13.9999Z" fill="#08102E"/>
</svg>
