<svg width="26" height="23" viewBox="0 0 26 23" fill="none" xmlns="http://www.w3.org/2000/svg">
<path d="M17.0236 11.4993C17.0236 10.4489 17.8752 9.59729 18.9257 9.59729C19.9762 9.59729 20.8277 10.4489 20.8277 11.4993C20.8277 12.5498 19.9762 13.4014 18.9257 13.4014C17.8752 13.4014 17.0236 12.5498 17.0236 11.4993Z" fill="#08102E"/>
<path fill-rule="evenodd" clip-rule="evenodd" d="M23.2894 4.74582C22.4554 2.78586 20.6124 1.37692 18.4193 1.14614L17.5927 1.05916C13.418 0.619844 9.20716 0.648814 5.03883 1.14553L4.49112 1.2108C2.37503 1.46296 0.698371 3.11623 0.416517 5.22857C-0.138839 9.39065 -0.138839 13.6081 0.416517 17.7701C0.698371 19.8825 2.37503 21.5358 4.49112 21.7879L5.03883 21.8532C9.20717 22.3499 13.418 22.3789 17.5927 21.9396L18.4193 21.8526C20.6124 21.6218 22.4554 20.2128 23.2894 18.2529C24.6072 17.8605 25.613 16.7181 25.7781 15.3065C26.074 12.777 26.074 10.2217 25.7781 7.69225C25.613 6.28064 24.6072 5.13818 23.2894 4.74582ZM17.3937 2.95076C13.36 2.52629 9.2914 2.55428 5.2639 3.03422L4.71618 3.09948C3.46233 3.2489 2.46886 4.22851 2.30186 5.48013C1.76878 9.47525 1.76878 13.5235 2.30186 17.5186C2.46886 18.7702 3.46234 19.7498 4.71618 19.8992L5.2639 19.9645C9.29141 20.4444 13.36 20.4724 17.3937 20.0479L18.2203 19.961C19.2988 19.8475 20.2531 19.3159 20.9144 18.5267C19.002 18.6382 17.0642 18.5884 15.1745 18.3772C13.5649 18.1973 12.2632 16.9299 12.0733 15.3065C11.7775 12.777 11.7775 10.2217 12.0733 7.69225C12.2632 6.06883 13.5649 4.80138 15.1745 4.62149C17.0642 4.41029 19.002 4.36046 20.9144 4.47198C20.2531 3.68286 19.2988 3.15124 18.2203 3.03775L17.3937 2.95076ZM21.8135 6.44586C21.8143 6.45072 21.815 6.45559 21.8158 6.46046L21.8234 6.50977L22.0753 6.47065C22.2057 6.48355 22.3358 6.49726 22.4656 6.51177C23.2105 6.59502 23.8036 7.18357 23.8889 7.9132C24.1676 10.2958 24.1676 12.7029 23.8889 15.0855C23.8036 15.8151 23.2105 16.4037 22.4656 16.4869C22.3358 16.5015 22.2056 16.5152 22.0753 16.5281L21.8234 16.4889L21.8158 16.5382C21.815 16.5431 21.8143 16.548 21.8135 16.5528C19.6849 16.7454 17.5019 16.7234 15.3858 16.4869C14.641 16.4037 14.0478 15.8151 13.9625 15.0855C13.6838 12.7029 13.6838 10.2958 13.9625 7.9132C14.0478 7.18357 14.641 6.59502 15.3858 6.51177C17.5019 6.27526 19.6849 6.25329 21.8135 6.44586Z" fill="#08102E"/>
</svg>
