<svg width="22" height="20" viewBox="0 0 22 20" fill="none" xmlns="http://www.w3.org/2000/svg">
<path d="M11 3.52422L10.451 4.03522C10.5929 4.18764 10.7918 4.27422 11 4.27422C11.2082 4.27422 11.4071 4.18764 11.549 4.03522L11 3.52422ZM11.765 2.70229L11.2161 2.1913V2.1913L11.765 2.70229ZM10.235 2.70229L10.7839 2.1913V2.1913L10.235 2.70229ZM2.58447 10.9217L2.03548 11.4326L2.58447 10.9217ZM9.4699 18.3191L10.0189 17.8081L9.4699 18.3191ZM12.5301 18.3191L11.9811 17.8081L12.5301 18.3191ZM19.4155 10.9217L18.8665 10.4107L19.4155 10.9217ZM19.4155 2.70229L19.9645 2.1913L19.4155 2.70229ZM2.58447 2.70229L2.03548 2.1913L2.58447 2.70229ZM2 9.25C1.58579 9.25 1.25 9.58579 1.25 10C1.25 10.4142 1.58579 10.75 2 10.75V9.25ZM7 10V10.75C7.25076 10.75 7.48494 10.6247 7.62404 10.416L7 10ZM9 7L9.62404 6.58397C9.48494 6.37533 9.25076 6.25 9 6.25C8.74924 6.25 8.51506 6.37533 8.37596 6.58397L9 7ZM13 13L12.376 13.416C12.5151 13.6247 12.7492 13.75 13 13.75C13.2508 13.75 13.4849 13.6247 13.624 13.416L13 13ZM15 10V9.25C14.7492 9.25 14.5151 9.37533 14.376 9.58397L15 10ZM20 10.75C20.4142 10.75 20.75 10.4142 20.75 10C20.75 9.58579 20.4142 9.25 20 9.25V10.75ZM11.549 4.03522L12.314 3.21328L11.2161 2.1913L10.451 3.01323L11.549 4.03522ZM9.68596 3.21328L10.451 4.03522L11.549 3.01323L10.7839 2.1913L9.68596 3.21328ZM2.03548 11.4326L8.92091 18.8301L10.0189 17.8081L3.13345 10.4107L2.03548 11.4326ZM13.0791 18.8301L19.9645 11.4326L18.8665 10.4107L11.9811 17.8081L13.0791 18.8301ZM18.8665 3.21328C20.7111 5.19505 20.7112 8.42889 18.8665 10.4107L19.9645 11.4326C22.3452 8.87498 22.3452 4.74896 19.9645 2.1913L18.8665 3.21328ZM19.9645 2.1913C17.5553 -0.397098 13.6253 -0.397099 11.2161 2.1913L12.314 3.21328C14.13 1.26224 17.0505 1.26224 18.8665 3.21328L19.9645 2.1913ZM3.13346 3.21328C4.94946 1.26224 7.86996 1.26224 9.68596 3.21328L10.7839 2.1913C8.3747 -0.397098 4.44472 -0.3971 2.03548 2.1913L3.13346 3.21328ZM8.92091 18.8301C10.0626 20.0566 11.9374 20.0566 13.0791 18.8301L11.9811 17.8081C11.4327 18.3973 10.5673 18.3973 10.0189 17.8081L8.92091 18.8301ZM2.03548 2.1913C-0.345159 4.74896 -0.34516 8.87499 2.03548 11.4326L3.13345 10.4107C1.28885 8.42889 1.28885 5.19505 3.13346 3.21328L2.03548 2.1913ZM2 10.75H7V9.25H2V10.75ZM7.62404 10.416L9.62404 7.41603L8.37596 6.58397L6.37596 9.58397L7.62404 10.416ZM8.37596 7.41603L12.376 13.416L13.624 12.584L9.62404 6.58397L8.37596 7.41603ZM13.624 13.416L15.624 10.416L14.376 9.58397L12.376 12.584L13.624 13.416ZM15 10.75H20V9.25H15V10.75Z" fill="#FF4A4A"/>
</svg>
