<svg width="24" height="27" viewBox="0 0 24 27" fill="none" xmlns="http://www.w3.org/2000/svg">
<path fill-rule="evenodd" clip-rule="evenodd" d="M14.2386 3.46404C12.9876 2.26362 11.0124 2.26362 9.76139 3.46404L3.11313 9.84343C2.95024 9.99973 2.84067 10.2033 2.79995 10.4254C2.00366 14.7678 1.94488 19.2134 2.62609 23.5754L2.78778 24.6108H7.06499V15.685C7.06499 15.0898 7.54752 14.6073 8.14275 14.6073H15.8572C16.4525 14.6073 16.935 15.0898 16.935 15.685V24.6108H21.2122L21.3739 23.5754C22.0551 19.2134 21.9963 14.7678 21.2 10.4254C21.1593 10.2033 21.0498 9.99973 20.8869 9.84343L14.2386 3.46404ZM8.26898 1.90873C10.354 -0.0919731 13.646 -0.0919731 15.731 1.90873L22.3793 8.28812C22.8687 8.75773 23.1979 9.36945 23.3202 10.0366C24.1602 14.6173 24.2222 19.3067 23.5036 23.908L23.2439 25.5713C23.1364 26.2592 22.544 26.7663 21.8478 26.7663H15.8572C15.262 26.7663 14.7795 26.2838 14.7795 25.6885V16.7628H9.22051V25.6885C9.22051 26.2838 8.73798 26.7663 8.14275 26.7663H2.15223C1.45602 26.7663 0.86356 26.2592 0.756136 25.5713L0.496378 23.908C-0.222198 19.3067 -0.160195 14.6173 0.679783 10.0366C0.80212 9.36945 1.13132 8.75773 1.62072 8.28812L8.26898 1.90873Z" fill="#FF6600"/>
</svg>
