<svg width="22" height="19" viewBox="0 0 22 19" fill="none" xmlns="http://www.w3.org/2000/svg">
<circle cx="11" cy="8.5" r="3" stroke="#F2C94C" stroke-width="1.5"/>
<path d="M17.25 8.5C17.25 10.4712 16.2342 12.5553 14.8651 14.1722C14.1868 14.9733 13.4443 15.632 12.7421 16.0847C12.0237 16.5478 11.4184 16.75 11 16.75V18.25C11.8316 18.25 12.7263 17.8795 13.5548 17.3454C14.3994 16.801 15.2507 16.0381 16.0099 15.1415C17.5158 13.363 18.75 10.9471 18.75 8.5H17.25ZM11 16.75C10.5816 16.75 9.97635 16.5478 9.25792 16.0847C8.55565 15.632 7.81318 14.9733 7.13488 14.1722C5.76576 12.5553 4.75 10.4712 4.75 8.5H3.25C3.25 10.9471 4.48424 13.363 5.99012 15.1415C6.74932 16.0381 7.6006 16.801 8.44521 17.3454C9.27365 17.8795 10.1684 18.25 11 18.25V16.75ZM4.75 8.5C4.75 6.47778 5.46207 4.93144 6.56552 3.88812C7.67552 2.83861 9.23313 2.25 11 2.25V0.75C8.90088 0.75 6.95849 1.45225 5.53498 2.79817C4.10494 4.15028 3.25 6.10395 3.25 8.5H4.75ZM11 2.25C12.7669 2.25 14.3245 2.83861 15.4345 3.88812C16.5379 4.93144 17.25 6.47778 17.25 8.5H18.75C18.75 6.10395 17.8951 4.15028 16.465 2.79817C15.0415 1.45225 13.0991 0.75 11 0.75V2.25Z" fill="#F2C94C"/>
<path d="M19.9532 3.5C20.6231 4.81242 21 6.36243 21 8.125C21 9.25625 20.7771 10.3953 20.3912 11.5M1.60876 11.5C1.22291 10.3953 1 9.25625 1 8.125C1 6.36243 1.37686 4.81242 2.04679 3.5" stroke="#F2C94C" stroke-width="1.5" stroke-linecap="round"/>
</svg>
