<svg width="458" height="233" viewBox="0 0 458 233" fill="none" xmlns="http://www.w3.org/2000/svg">
<rect width="458" height="233" rx="6" fill="#F5F5F5"/>
<path d="M168.278 62.8572V61.7635H175.914V62.8572H172.712V71.9453H171.479V62.8572H168.278ZM185.984 66.8544C185.984 67.9283 185.79 68.8563 185.402 69.6385C185.015 70.4207 184.483 71.0239 183.806 71.4482C183.13 71.8724 182.358 72.0845 181.49 72.0845C180.621 72.0845 179.849 71.8724 179.173 71.4482C178.497 71.0239 177.965 70.4207 177.577 69.6385C177.189 68.8563 176.995 67.9283 176.995 66.8544C176.995 65.7805 177.189 64.8525 177.577 64.0703C177.965 63.2881 178.497 62.6849 179.173 62.2607C179.849 61.8364 180.621 61.6243 181.49 61.6243C182.358 61.6243 183.13 61.8364 183.806 62.2607C184.483 62.6849 185.015 63.2881 185.402 64.0703C185.79 64.8525 185.984 65.7805 185.984 66.8544ZM184.791 66.8544C184.791 65.9728 184.643 65.2287 184.348 64.6222C184.057 64.0156 183.661 63.5566 183.16 63.245C182.663 62.9335 182.106 62.7777 181.49 62.7777C180.873 62.7777 180.315 62.9335 179.814 63.245C179.317 63.5566 178.921 64.0156 178.626 64.6222C178.334 65.2287 178.189 65.9728 178.189 66.8544C178.189 67.736 178.334 68.4801 178.626 69.0866C178.921 69.6932 179.317 70.1522 179.814 70.4638C180.315 70.7753 180.873 70.9311 181.49 70.9311C182.106 70.9311 182.663 70.7753 183.16 70.4638C183.661 70.1522 184.057 69.6932 184.348 69.0866C184.643 68.4801 184.791 67.736 184.791 66.8544ZM187.077 62.8572V61.7635H194.713V62.8572H191.511V71.9453H190.278V62.8572H187.077ZM195.844 71.9453H194.551L198.29 61.7635H199.563L203.301 71.9453H202.009L198.966 63.3743H198.887L195.844 71.9453ZM196.321 67.968H201.531V69.0618H196.321V67.968ZM204.887 71.9453V61.7635H206.12V70.8516H210.853V71.9453H204.887ZM216.7 71.9453V61.7635H222.805V62.8572H217.933V66.2976H222.347V67.3913H217.933V71.9453H216.7ZM231.598 61.7635H232.831V68.505C232.831 69.201 232.667 69.8224 232.339 70.3693C232.014 70.9129 231.555 71.3421 230.962 71.657C230.369 71.9685 229.673 72.1243 228.874 72.1243C228.075 72.1243 227.379 71.9685 226.786 71.657C226.193 71.3421 225.732 70.9129 225.404 70.3693C225.079 69.8224 224.917 69.201 224.917 68.505V61.7635H226.15V68.4055C226.15 68.9027 226.259 69.3452 226.478 69.733C226.696 70.1174 227.008 70.4207 227.412 70.6428C227.82 70.8615 228.307 70.9709 228.874 70.9709C229.441 70.9709 229.928 70.8615 230.336 70.6428C230.743 70.4207 231.055 70.1174 231.27 69.733C231.489 69.3452 231.598 68.9027 231.598 68.4055V61.7635ZM235.294 71.9453V61.7635H241.438V62.8572H236.526V66.2976H241.12V67.3913H236.526V70.8516H241.518V71.9453H235.294ZM243.661 71.9453V61.7635H244.894V70.8516H249.627V71.9453H243.661ZM263.666 64.9453H262.433C262.361 64.5907 262.233 64.2791 262.051 64.0107C261.872 63.7422 261.653 63.5168 261.394 63.3345C261.139 63.1489 260.856 63.0097 260.544 62.9169C260.233 62.8241 259.908 62.7777 259.57 62.7777C258.953 62.7777 258.395 62.9335 257.894 63.245C257.397 63.5566 257.001 64.0156 256.706 64.6222C256.414 65.2287 256.269 65.9728 256.269 66.8544C256.269 67.736 256.414 68.4801 256.706 69.0866C257.001 69.6932 257.397 70.1522 257.894 70.4638C258.395 70.7753 258.953 70.9311 259.57 70.9311C259.908 70.9311 260.233 70.8847 260.544 70.7919C260.856 70.6991 261.139 70.5616 261.394 70.3793C261.653 70.1937 261.872 69.9666 262.051 69.6982C262.233 69.4264 262.361 69.1148 262.433 68.7635H263.666C263.574 69.2839 263.405 69.7495 263.159 70.1605C262.914 70.5715 262.609 70.9212 262.244 71.2095C261.88 71.4946 261.471 71.7116 261.017 71.8608C260.566 72.0099 260.084 72.0845 259.57 72.0845C258.701 72.0845 257.929 71.8724 257.253 71.4482C256.577 71.0239 256.045 70.4207 255.657 69.6385C255.269 68.8563 255.075 67.9283 255.075 66.8544C255.075 65.7805 255.269 64.8525 255.657 64.0703C256.045 63.2881 256.577 62.6849 257.253 62.2607C257.929 61.8364 258.701 61.6243 259.57 61.6243C260.084 61.6243 260.566 61.6989 261.017 61.848C261.471 61.9972 261.88 62.2159 262.244 62.5043C262.609 62.7893 262.914 63.1373 263.159 63.5483C263.405 63.956 263.574 64.4216 263.666 64.9453ZM274.25 66.8544C274.25 67.9283 274.056 68.8563 273.668 69.6385C273.28 70.4207 272.748 71.0239 272.072 71.4482C271.396 71.8724 270.624 72.0845 269.755 72.0845C268.887 72.0845 268.115 71.8724 267.439 71.4482C266.762 71.0239 266.23 70.4207 265.843 69.6385C265.455 68.8563 265.261 67.9283 265.261 66.8544C265.261 65.7805 265.455 64.8525 265.843 64.0703C266.23 63.2881 266.762 62.6849 267.439 62.2607C268.115 61.8364 268.887 61.6243 269.755 61.6243C270.624 61.6243 271.396 61.8364 272.072 62.2607C272.748 62.6849 273.28 63.2881 273.668 64.0703C274.056 64.8525 274.25 65.7805 274.25 66.8544ZM273.056 66.8544C273.056 65.9728 272.909 65.2287 272.614 64.6222C272.322 64.0156 271.926 63.5566 271.426 63.245C270.929 62.9335 270.372 62.7777 269.755 62.7777C269.139 62.7777 268.58 62.9335 268.08 63.245C267.583 63.5566 267.187 64.0156 266.892 64.6222C266.6 65.2287 266.454 65.9728 266.454 66.8544C266.454 67.736 266.6 68.4801 266.892 69.0866C267.187 69.6932 267.583 70.1522 268.08 70.4638C268.58 70.7753 269.139 70.9311 269.755 70.9311C270.372 70.9311 270.929 70.7753 271.426 70.4638C271.926 70.1522 272.322 69.6932 272.614 69.0866C272.909 68.4801 273.056 67.736 273.056 66.8544ZM281.891 64.3089C281.831 63.8052 281.589 63.4141 281.165 63.1357C280.741 62.8572 280.221 62.718 279.604 62.718C279.153 62.718 278.759 62.791 278.421 62.9368C278.086 63.0826 277.824 63.2831 277.635 63.5384C277.45 63.7936 277.357 64.0836 277.357 64.4084C277.357 64.6802 277.422 64.9138 277.551 65.1094C277.683 65.3016 277.852 65.4624 278.058 65.5916C278.263 65.7176 278.479 65.822 278.704 65.9048C278.93 65.9844 279.137 66.049 279.326 66.0987L280.36 66.3771C280.625 66.4467 280.92 66.5429 281.245 66.6655C281.573 66.7881 281.886 66.9555 282.184 67.1676C282.486 67.3764 282.734 67.6449 282.93 67.973C283.126 68.3011 283.223 68.7038 283.223 69.1811C283.223 69.7313 283.079 70.2285 282.791 70.6726C282.506 71.1167 282.088 71.4697 281.538 71.7315C280.991 71.9934 280.327 72.1243 279.544 72.1243C278.815 72.1243 278.184 72.0066 277.65 71.7713C277.12 71.536 276.702 71.2079 276.397 70.7869C276.096 70.366 275.925 69.8771 275.885 69.3203H277.158C277.191 69.7048 277.32 70.023 277.546 70.2749C277.775 70.5234 278.063 70.709 278.411 70.8317C278.762 70.951 279.14 71.0107 279.544 71.0107C280.015 71.0107 280.438 70.9344 280.812 70.782C281.187 70.6262 281.483 70.4107 281.702 70.1357C281.921 69.8572 282.03 69.5324 282.03 69.1612C282.03 68.8232 281.936 68.5481 281.747 68.3359C281.558 68.1238 281.309 67.9515 281.001 67.8189C280.693 67.6863 280.36 67.5703 280.002 67.4709L278.749 67.1129C277.953 66.8842 277.324 66.5578 276.86 66.1335C276.396 65.7093 276.164 65.1541 276.164 64.468C276.164 63.898 276.318 63.4008 276.626 62.9766C276.938 62.549 277.355 62.2176 277.879 61.9822C278.406 61.7436 278.994 61.6243 279.644 61.6243C280.3 61.6243 280.883 61.742 281.394 61.9773C281.904 62.2093 282.309 62.5275 282.607 62.9318C282.908 63.3362 283.068 63.7952 283.084 64.3089H281.891ZM284.694 62.8572V61.7635H292.33V62.8572H289.128V71.9453H287.895V62.8572H284.694Z" fill="#888888"/>
<path d="M158.687 35.6357V36.9141H145.648V35.6357H158.687ZM158.687 38.397V39.6754H145.648V38.397H158.687ZM157.556 30.8544V43.9453H155.447L149.272 35.0284H149.17V43.9453H146.792V30.8544H148.92L155.076 39.7777H155.197V30.8544H157.556ZM164.909 44.1243C164.057 44.1243 163.294 43.9645 162.621 43.6449C161.948 43.321 161.413 42.8778 161.017 42.3153C160.625 41.7528 160.416 41.1094 160.39 40.3849H162.691C162.734 40.9219 162.966 41.3608 163.388 41.7017C163.81 42.0384 164.317 42.2067 164.909 42.2067C165.374 42.2067 165.787 42.1001 166.149 41.8871C166.512 41.674 166.797 41.3778 167.006 40.9986C167.215 40.6193 167.317 40.1868 167.313 39.701C167.317 39.2067 167.213 38.7678 167 38.3842C166.787 38.0007 166.495 37.7003 166.124 37.483C165.753 37.2614 165.327 37.1506 164.845 37.1506C164.453 37.1463 164.068 37.2188 163.689 37.3679C163.309 37.517 163.009 37.7131 162.787 37.956L160.646 37.6044L161.33 30.8544H168.924V32.8359H163.292L162.915 36.3068H162.992C163.235 36.0213 163.578 35.7848 164.021 35.5973C164.464 35.4055 164.95 35.3097 165.478 35.3097C166.271 35.3097 166.978 35.4972 167.6 35.8722C168.223 36.2429 168.713 36.7543 169.071 37.4062C169.429 38.0582 169.608 38.804 169.608 39.6435C169.608 40.5085 169.407 41.2798 169.007 41.9574C168.61 42.6307 168.059 43.1612 167.351 43.549C166.648 43.9325 165.834 44.1243 164.909 44.1243ZM174.232 42.1555L174.149 42.8587C174.089 43.3956 173.982 43.9411 173.829 44.495C173.68 45.0533 173.522 45.5668 173.356 46.0355C173.19 46.5043 173.055 46.8729 172.953 47.1413H171.394C171.453 46.8814 171.534 46.5277 171.636 46.0803C171.743 45.6328 171.845 45.13 171.943 44.5717C172.041 44.0135 172.107 43.4467 172.141 42.8714L172.186 42.1555H174.232ZM176.742 41.5163V39.6307L182.296 30.8544H183.869V33.5391H182.91L179.171 39.4645V39.5668H186.924V41.5163H176.742ZM182.987 43.9453V40.9411L183.012 40.0973V30.8544H185.249V43.9453H182.987ZM193.985 44.1946C192.933 44.1946 192.029 43.9283 191.275 43.3956C190.525 42.8587 189.947 42.0852 189.543 41.0753C189.142 40.0611 188.942 38.8402 188.942 37.4126C188.946 35.9851 189.148 34.7706 189.549 33.7692C189.954 32.7635 190.531 31.9964 191.281 31.468C192.036 30.9396 192.937 30.6754 193.985 30.6754C195.033 30.6754 195.935 30.9396 196.689 31.468C197.443 31.9964 198.021 32.7635 198.421 33.7692C198.826 34.7749 199.028 35.9893 199.028 37.4126C199.028 38.8445 198.826 40.0675 198.421 41.0817C198.021 42.0916 197.443 42.8629 196.689 43.3956C195.939 43.9283 195.038 44.1946 193.985 44.1946ZM193.985 42.1939C194.803 42.1939 195.449 41.7912 195.922 40.9858C196.399 40.1761 196.638 38.9851 196.638 37.4126C196.638 36.3729 196.529 35.4993 196.312 34.7919C196.094 34.0845 195.788 33.5518 195.391 33.1939C194.995 32.8317 194.526 32.6506 193.985 32.6506C193.171 32.6506 192.528 33.0554 192.055 33.8651C191.582 34.6705 191.343 35.853 191.339 37.4126C191.335 38.4567 191.439 39.3345 191.652 40.0462C191.869 40.7578 192.176 41.2947 192.572 41.657C192.969 42.0149 193.44 42.1939 193.985 42.1939ZM201.096 41.5163V39.6307L206.65 30.8544H208.223V33.5391H207.264L203.525 39.4645V39.5668H211.278V41.5163H201.096ZM207.341 43.9453V40.9411L207.366 40.0973V30.8544H209.603V43.9453H207.341ZM214.582 44.0859C214.195 44.0859 213.862 43.9496 213.585 43.6768C213.308 43.4041 213.172 43.0717 213.176 42.6797C213.172 42.2962 213.308 41.968 213.585 41.6953C213.862 41.4226 214.195 41.2862 214.582 41.2862C214.957 41.2862 215.283 41.4226 215.56 41.6953C215.842 41.968 215.984 42.2962 215.989 42.6797C215.984 42.9396 215.916 43.1761 215.784 43.3892C215.656 43.6023 215.486 43.7727 215.273 43.9006C215.064 44.0241 214.834 44.0859 214.582 44.0859ZM222.861 44.1946C221.808 44.1946 220.905 43.9283 220.151 43.3956C219.401 42.8587 218.823 42.0852 218.419 41.0753C218.018 40.0611 217.818 38.8402 217.818 37.4126C217.822 35.9851 218.024 34.7706 218.425 33.7692C218.83 32.7635 219.407 31.9964 220.157 31.468C220.911 30.9396 221.813 30.6754 222.861 30.6754C223.909 30.6754 224.811 30.9396 225.565 31.468C226.319 31.9964 226.897 32.7635 227.297 33.7692C227.702 34.7749 227.904 35.9893 227.904 37.4126C227.904 38.8445 227.702 40.0675 227.297 41.0817C226.897 42.0916 226.319 42.8629 225.565 43.3956C224.815 43.9283 223.914 44.1946 222.861 44.1946ZM222.861 42.1939C223.679 42.1939 224.325 41.7912 224.798 40.9858C225.275 40.1761 225.514 38.9851 225.514 37.4126C225.514 36.3729 225.405 35.4993 225.188 34.7919C224.97 34.0845 224.664 33.5518 224.267 33.1939C223.871 32.8317 223.402 32.6506 222.861 32.6506C222.047 32.6506 221.404 33.0554 220.931 33.8651C220.458 34.6705 220.219 35.853 220.215 37.4126C220.21 38.4567 220.315 39.3345 220.528 40.0462C220.745 40.7578 221.052 41.2947 221.448 41.657C221.845 42.0149 222.316 42.1939 222.861 42.1939ZM234.759 44.1243C233.907 44.1243 233.144 43.9645 232.471 43.6449C231.798 43.321 231.263 42.8778 230.867 42.3153C230.474 41.7528 230.266 41.1094 230.24 40.3849H232.541C232.584 40.9219 232.816 41.3608 233.238 41.7017C233.66 42.0384 234.167 42.2067 234.759 42.2067C235.224 42.2067 235.637 42.1001 235.999 41.8871C236.362 41.674 236.647 41.3778 236.856 40.9986C237.065 40.6193 237.167 40.1868 237.163 39.701C237.167 39.2067 237.063 38.7678 236.849 38.3842C236.636 38.0007 236.344 37.7003 235.974 37.483C235.603 37.2614 235.177 37.1506 234.695 37.1506C234.303 37.1463 233.918 37.2188 233.538 37.3679C233.159 37.517 232.859 37.7131 232.637 37.956L230.496 37.6044L231.18 30.8544H238.773V32.8359H233.142L232.765 36.3068H232.842C233.085 36.0213 233.428 35.7848 233.871 35.5973C234.314 35.4055 234.8 35.3097 235.328 35.3097C236.121 35.3097 236.828 35.4972 237.45 35.8722C238.072 36.2429 238.563 36.7543 238.92 37.4062C239.278 38.0582 239.457 38.804 239.457 39.6435C239.457 40.5085 239.257 41.2798 238.857 41.9574C238.46 42.6307 237.908 43.1612 237.201 43.549C236.498 43.9325 235.684 44.1243 234.759 44.1243ZM256.438 30.2408L252.219 45.9141H250.193L254.411 30.2408H256.438ZM272.057 44.1243C271.136 44.1243 270.318 43.9666 269.602 43.6513C268.89 43.3359 268.328 42.897 267.915 42.3345C267.501 41.772 267.282 41.1222 267.256 40.3849H269.66C269.681 40.7386 269.798 41.0476 270.011 41.3118C270.224 41.5717 270.508 41.7741 270.861 41.919C271.215 42.0639 271.611 42.1364 272.05 42.1364C272.519 42.1364 272.934 42.0554 273.297 41.8935C273.659 41.7273 273.942 41.4972 274.147 41.2031C274.351 40.9091 274.451 40.5703 274.447 40.1868C274.451 39.7905 274.349 39.4411 274.14 39.1385C273.932 38.8359 273.629 38.5994 273.233 38.429C272.841 38.2585 272.368 38.1733 271.814 38.1733H270.657V36.3452H271.814C272.27 36.3452 272.668 36.2663 273.009 36.1087C273.354 35.951 273.625 35.7294 273.821 35.4439C274.017 35.1541 274.113 34.8196 274.108 34.4403C274.113 34.0696 274.03 33.7479 273.859 33.4751C273.693 33.1982 273.456 32.983 273.15 32.8295C272.847 32.6761 272.491 32.5994 272.082 32.5994C271.682 32.5994 271.311 32.6719 270.97 32.8168C270.629 32.9616 270.354 33.1683 270.145 33.4368C269.937 33.701 269.826 34.0163 269.813 34.3828H267.531C267.548 33.6499 267.759 33.0064 268.164 32.4524C268.573 31.8942 269.118 31.4595 269.8 31.1484C270.482 30.8331 271.247 30.6754 272.095 30.6754C272.969 30.6754 273.727 30.8395 274.371 31.1676C275.018 31.4915 275.519 31.9283 275.873 32.478C276.226 33.0277 276.403 33.6349 276.403 34.2997C276.407 35.0369 276.19 35.6548 275.751 36.1534C275.317 36.652 274.746 36.978 274.038 37.1314V37.2337C274.959 37.3615 275.664 37.7024 276.154 38.2564C276.648 38.8061 276.893 39.4901 276.889 40.3082C276.889 41.0412 276.68 41.6974 276.263 42.277C275.849 42.8523 275.278 43.304 274.549 43.6321C273.825 43.9602 272.994 44.1243 272.057 44.1243ZM283.961 44.1243C283.041 44.1243 282.223 43.9666 281.507 43.6513C280.795 43.3359 280.232 42.897 279.819 42.3345C279.406 41.772 279.186 41.1222 279.161 40.3849H281.564C281.585 40.7386 281.703 41.0476 281.916 41.3118C282.129 41.5717 282.412 41.7741 282.766 41.919C283.12 42.0639 283.516 42.1364 283.955 42.1364C284.424 42.1364 284.839 42.0554 285.201 41.8935C285.563 41.7273 285.847 41.4972 286.051 41.2031C286.256 40.9091 286.356 40.5703 286.352 40.1868C286.356 39.7905 286.254 39.4411 286.045 39.1385C285.836 38.8359 285.534 38.5994 285.137 38.429C284.745 38.2585 284.272 38.1733 283.718 38.1733H282.561V36.3452H283.718C284.174 36.3452 284.573 36.2663 284.914 36.1087C285.259 35.951 285.529 35.7294 285.725 35.4439C285.921 35.1541 286.017 34.8196 286.013 34.4403C286.017 34.0696 285.934 33.7479 285.764 33.4751C285.598 33.1982 285.361 32.983 285.054 32.8295C284.752 32.6761 284.396 32.5994 283.987 32.5994C283.586 32.5994 283.215 32.6719 282.875 32.8168C282.534 32.9616 282.259 33.1683 282.05 33.4368C281.841 33.701 281.73 34.0163 281.718 34.3828H279.436C279.453 33.6499 279.664 33.0064 280.068 32.4524C280.478 31.8942 281.023 31.4595 281.705 31.1484C282.387 30.8331 283.152 30.6754 284 30.6754C284.873 30.6754 285.632 30.8395 286.275 31.1676C286.923 31.4915 287.424 31.9283 287.777 32.478C288.131 33.0277 288.308 33.6349 288.308 34.2997C288.312 35.0369 288.095 35.6548 287.656 36.1534C287.221 36.652 286.65 36.978 285.943 37.1314V37.2337C286.863 37.3615 287.568 37.7024 288.058 38.2564C288.553 38.8061 288.798 39.4901 288.794 40.3082C288.794 41.0412 288.585 41.6974 288.167 42.277C287.754 42.8523 287.183 43.304 286.454 43.6321C285.73 43.9602 284.899 44.1243 283.961 44.1243ZM291.295 43.9453V30.8544H293.667V36.8693H293.827L298.934 30.8544H301.83L296.767 36.7287L301.874 43.9453H299.023L295.118 38.3331L293.667 40.0462V43.9453H291.295ZM303.657 30.8544H306.559L310.445 40.3402H310.599L314.485 30.8544H317.387V43.9453H315.112V34.9517H314.99L311.372 43.907H309.672L306.054 34.9325H305.933V43.9453H303.657V30.8544Z" fill="#08102E"/>
<path d="M17 203.188H445.288" stroke="#C4C4C4" stroke-width="1.3122" stroke-linecap="round" stroke-linejoin="round"/>
<path d="M17 176.635H445.288" stroke="#CCCCCC" stroke-width="0.535268" stroke-linecap="round" stroke-linejoin="round" stroke-dasharray="6.56 6.56"/>
<path d="M17 146.76H445.288" stroke="#CCCCCC" stroke-width="0.535268" stroke-linecap="round" stroke-linejoin="round" stroke-dasharray="6.56 6.56"/>
<rect x="32.9407" y="146.408" width="46.0331" height="56.7384" fill="#3A87CF"/>
<rect x="91.8202" y="174.242" width="46.0331" height="28.9045" fill="#3A87CF"/>
<rect x="150.7" y="107.869" width="46.0331" height="95.2777" fill="#3A87CF"/>
<rect x="209.579" y="130.35" width="47.1036" height="72.7964" fill="#3A87CF"/>
<rect x="269.529" y="153.902" width="46.0331" height="49.2447" fill="#3A87CF"/>
<rect x="328.409" y="130.35" width="44.9625" height="72.7964" fill="#3A87CF"/>
<rect x="386.218" y="153.902" width="46.0331" height="49.2447" fill="#3A87CF"/>
<path d="M45.1403 211.946H46.3611L49.2318 218.957H49.3308L52.2014 211.946H53.4223V220.393H52.4654V213.975H52.3829L49.7432 220.393H48.8193L46.1797 213.975H46.0972V220.393H45.1403V211.946ZM57.9149 220.525C57.343 220.525 56.8411 220.388 56.4094 220.116C55.9805 219.844 55.645 219.463 55.4031 218.974C55.1639 218.484 55.0442 217.912 55.0442 217.258C55.0442 216.598 55.1639 216.022 55.4031 215.53C55.645 215.038 55.9805 214.655 56.4094 214.383C56.8411 214.111 57.343 213.975 57.9149 213.975C58.4868 213.975 58.9873 214.111 59.4162 214.383C59.8479 214.655 60.1834 215.038 60.4226 215.53C60.6646 216.022 60.7855 216.598 60.7855 217.258C60.7855 217.912 60.6646 218.484 60.4226 218.974C60.1834 219.463 59.8479 219.844 59.4162 220.116C58.9873 220.388 58.4868 220.525 57.9149 220.525ZM57.9149 219.65C58.3493 219.65 58.7068 219.539 58.9873 219.316C59.2677 219.093 59.4753 218.801 59.6101 218.438C59.7448 218.075 59.8122 217.681 59.8122 217.258C59.8122 216.835 59.7448 216.44 59.6101 216.074C59.4753 215.709 59.2677 215.413 58.9873 215.187C58.7068 214.962 58.3493 214.849 57.9149 214.849C57.4804 214.849 57.123 214.962 56.8425 215.187C56.5621 215.413 56.3545 215.709 56.2197 216.074C56.085 216.44 56.0176 216.835 56.0176 217.258C56.0176 217.681 56.085 218.075 56.2197 218.438C56.3545 218.801 56.5621 219.093 56.8425 219.316C57.123 219.539 57.4804 219.65 57.9149 219.65ZM63.2448 216.582V220.393H62.2714V214.057H63.2118V215.047H63.2943C63.4427 214.726 63.6682 214.467 63.9707 214.272C64.2731 214.074 64.6636 213.975 65.142 213.975C65.571 213.975 65.9463 214.063 66.268 214.239C66.5897 214.412 66.84 214.676 67.0187 215.031C67.1974 215.383 67.2868 215.828 67.2868 216.367V220.393H66.3134V216.433C66.3134 215.935 66.1842 215.548 65.9257 215.27C65.6672 214.989 65.3125 214.849 64.8616 214.849C64.5509 214.849 64.2731 214.917 64.0284 215.051C63.7865 215.186 63.5954 215.383 63.4551 215.641C63.3149 215.9 63.2448 216.213 63.2448 216.582Z" fill="#888888"/>
<path d="M107.819 212.853V211.946H114.154V212.853H111.498V220.393H110.475V212.853H107.819ZM118.732 217.802V214.057H119.705V220.393H118.732V219.32H118.666C118.517 219.642 118.286 219.916 117.973 220.141C117.659 220.364 117.263 220.475 116.785 220.475C116.389 220.475 116.037 220.388 115.729 220.215C115.421 220.039 115.179 219.775 115.003 219.423C114.827 219.069 114.739 218.622 114.739 218.083V214.057H115.712V218.017C115.712 218.479 115.842 218.847 116.1 219.122C116.361 219.397 116.694 219.535 117.098 219.535C117.34 219.535 117.586 219.473 117.837 219.349C118.09 219.225 118.301 219.036 118.472 218.78C118.645 218.524 118.732 218.198 118.732 217.802ZM124.144 220.525C123.534 220.525 123.007 220.39 122.564 220.12C122.124 219.848 121.785 219.469 121.546 218.982C121.309 218.493 121.191 217.923 121.191 217.274C121.191 216.626 121.309 216.054 121.546 215.559C121.785 215.061 122.117 214.673 122.544 214.396C122.973 214.115 123.473 213.975 124.045 213.975C124.375 213.975 124.701 214.03 125.022 214.14C125.344 214.25 125.637 214.429 125.901 214.676C126.165 214.921 126.375 215.245 126.532 215.649C126.689 216.054 126.767 216.551 126.767 217.142V217.555H121.884V216.714H125.777C125.777 216.356 125.706 216.037 125.563 215.757C125.423 215.476 125.222 215.255 124.961 215.093C124.702 214.93 124.397 214.849 124.045 214.849C123.657 214.849 123.322 214.945 123.039 215.138C122.758 215.328 122.542 215.575 122.391 215.88C122.24 216.186 122.164 216.513 122.164 216.862V217.423C122.164 217.901 122.247 218.307 122.412 218.64C122.579 218.97 122.812 219.221 123.109 219.394C123.406 219.565 123.751 219.65 124.144 219.65C124.4 219.65 124.631 219.614 124.837 219.543C125.046 219.469 125.226 219.359 125.377 219.213C125.528 219.064 125.645 218.88 125.728 218.66L126.668 218.924C126.569 219.243 126.403 219.524 126.169 219.766C125.935 220.005 125.647 220.192 125.303 220.327C124.959 220.459 124.573 220.525 124.144 220.525Z" fill="#888888"/>
<path d="M168.54 220.393L166.23 211.946H167.27L169.035 218.825H169.117L170.916 211.946H172.071L173.869 218.825H173.951L175.717 211.946H176.756L174.446 220.393H173.39L171.526 213.661H171.46L169.596 220.393H168.54ZM179.965 220.525C179.354 220.525 178.828 220.39 178.385 220.12C177.945 219.848 177.606 219.469 177.366 218.982C177.13 218.493 177.012 217.923 177.012 217.274C177.012 216.626 177.13 216.054 177.366 215.559C177.606 215.061 177.938 214.673 178.364 214.396C178.793 214.115 179.294 213.975 179.866 213.975C180.196 213.975 180.522 214.03 180.843 214.14C181.165 214.25 181.458 214.429 181.722 214.676C181.986 214.921 182.196 215.245 182.353 215.649C182.51 216.054 182.588 216.551 182.588 217.142V217.555H177.705V216.714H181.598C181.598 216.356 181.527 216.037 181.384 215.757C181.243 215.476 181.043 215.255 180.781 215.093C180.523 214.93 180.218 214.849 179.866 214.849C179.478 214.849 179.143 214.945 178.859 215.138C178.579 215.328 178.363 215.575 178.212 215.88C178.061 216.186 177.985 216.513 177.985 216.862V217.423C177.985 217.901 178.068 218.307 178.233 218.64C178.4 218.97 178.633 219.221 178.93 219.394C179.227 219.565 179.572 219.65 179.965 219.65C180.221 219.65 180.451 219.614 180.658 219.543C180.867 219.469 181.047 219.359 181.198 219.213C181.349 219.064 181.466 218.88 181.549 218.66L182.489 218.924C182.39 219.243 182.224 219.524 181.99 219.766C181.756 220.005 181.467 220.192 181.124 220.327C180.78 220.459 180.394 220.525 179.965 220.525ZM186.461 220.525C185.933 220.525 185.467 220.391 185.063 220.124C184.658 219.855 184.342 219.476 184.114 218.986C183.886 218.494 183.772 217.912 183.772 217.241C183.772 216.576 183.886 215.999 184.114 215.509C184.342 215.02 184.66 214.642 185.067 214.375C185.474 214.108 185.944 213.975 186.477 213.975C186.89 213.975 187.216 214.044 187.455 214.181C187.697 214.316 187.881 214.47 188.008 214.643C188.137 214.814 188.237 214.954 188.309 215.064H188.391V211.946H189.365V220.393H188.424V219.419H188.309C188.237 219.535 188.135 219.68 188.003 219.856C187.871 220.03 187.683 220.185 187.438 220.322C187.194 220.457 186.868 220.525 186.461 220.525ZM186.593 219.65C186.983 219.65 187.313 219.548 187.583 219.345C187.852 219.139 188.057 218.854 188.197 218.491C188.338 218.125 188.408 217.703 188.408 217.225C188.408 216.752 188.339 216.338 188.201 215.983C188.064 215.626 187.86 215.348 187.591 215.15C187.322 214.95 186.989 214.849 186.593 214.849C186.18 214.849 185.837 214.955 185.562 215.167C185.29 215.376 185.085 215.66 184.947 216.021C184.812 216.378 184.745 216.78 184.745 217.225C184.745 217.676 184.814 218.086 184.951 218.454C185.092 218.82 185.298 219.111 185.57 219.328C185.845 219.543 186.186 219.65 186.593 219.65Z" fill="#888888"/>
<path d="M229.878 212.853V211.946H236.214V212.853H233.557V220.393H232.534V212.853H229.878ZM238.634 216.582V220.393H237.66V211.946H238.634V215.047H238.716C238.865 214.72 239.087 214.46 239.384 214.268C239.684 214.072 240.083 213.975 240.58 213.975C241.012 213.975 241.39 214.061 241.715 214.235C242.039 214.405 242.291 214.668 242.469 215.022C242.651 215.374 242.742 215.823 242.742 216.367V220.393H241.768V216.433C241.768 215.93 241.638 215.541 241.376 215.266C241.118 214.988 240.759 214.849 240.3 214.849C239.981 214.849 239.695 214.917 239.442 215.051C239.192 215.186 238.994 215.383 238.848 215.641C238.705 215.9 238.634 216.213 238.634 216.582ZM248.515 217.802V214.057H249.488V220.393H248.515V219.32H248.449C248.3 219.642 248.069 219.916 247.756 220.141C247.442 220.364 247.047 220.475 246.568 220.475C246.172 220.475 245.82 220.388 245.512 220.215C245.204 220.039 244.962 219.775 244.786 219.423C244.61 219.069 244.522 218.622 244.522 218.083V214.057H245.496V218.017C245.496 218.479 245.625 218.847 245.883 219.122C246.145 219.397 246.477 219.535 246.882 219.535C247.124 219.535 247.37 219.473 247.62 219.349C247.873 219.225 248.085 219.036 248.255 218.78C248.428 218.524 248.515 218.198 248.515 217.802Z" fill="#888888"/>
<path d="M289.909 220.393V211.946H294.973V212.853H290.931V215.707H294.594V216.615H290.931V220.393H289.909ZM296.525 220.393V214.057H297.466V215.014H297.532C297.647 214.701 297.856 214.446 298.159 214.251C298.461 214.056 298.802 213.958 299.181 213.958C299.253 213.958 299.342 213.96 299.45 213.962C299.557 213.965 299.638 213.969 299.693 213.975V214.965C299.66 214.956 299.584 214.944 299.466 214.928C299.351 214.908 299.228 214.899 299.099 214.899C298.791 214.899 298.516 214.963 298.274 215.093C298.035 215.219 297.845 215.395 297.705 215.621C297.567 215.843 297.499 216.098 297.499 216.384V220.393H296.525ZM300.847 220.393V214.057H301.82V220.393H300.847ZM301.342 213.001C301.152 213.001 300.988 212.937 300.851 212.808C300.716 212.678 300.649 212.523 300.649 212.342C300.649 212.16 300.716 212.005 300.851 211.875C300.988 211.746 301.152 211.682 301.342 211.682C301.531 211.682 301.694 211.746 301.828 211.875C301.966 212.005 302.035 212.16 302.035 212.342C302.035 212.523 301.966 212.678 301.828 212.808C301.694 212.937 301.531 213.001 301.342 213.001Z" fill="#888888"/>
<path d="M347.312 214.057C347.263 213.639 347.062 213.315 346.71 213.084C346.358 212.853 345.926 212.738 345.415 212.738C345.041 212.738 344.714 212.798 344.433 212.919C344.156 213.04 343.938 213.206 343.782 213.418C343.628 213.63 343.551 213.87 343.551 214.14C343.551 214.365 343.604 214.559 343.712 214.721C343.822 214.881 343.962 215.014 344.132 215.121C344.303 215.226 344.481 215.313 344.668 215.381C344.855 215.447 345.027 215.501 345.184 215.542L346.042 215.773C346.262 215.831 346.507 215.911 346.776 216.012C347.048 216.114 347.308 216.253 347.556 216.429C347.806 216.602 348.012 216.825 348.174 217.097C348.336 217.369 348.418 217.703 348.418 218.099C348.418 218.556 348.298 218.968 348.059 219.337C347.822 219.705 347.476 219.998 347.019 220.215C346.566 220.432 346.014 220.541 345.365 220.541C344.761 220.541 344.237 220.443 343.794 220.248C343.354 220.053 343.008 219.781 342.755 219.432C342.504 219.082 342.363 218.677 342.33 218.215H343.386C343.413 218.534 343.52 218.798 343.707 219.007C343.897 219.213 344.136 219.367 344.425 219.469C344.717 219.568 345.03 219.617 345.365 219.617C345.756 219.617 346.106 219.554 346.417 219.427C346.728 219.298 346.974 219.119 347.155 218.891C347.337 218.66 347.428 218.391 347.428 218.083C347.428 217.802 347.349 217.574 347.193 217.398C347.036 217.222 346.83 217.079 346.574 216.969C346.318 216.859 346.042 216.763 345.745 216.681L344.706 216.384C344.046 216.194 343.523 215.923 343.138 215.571C342.753 215.219 342.561 214.759 342.561 214.189C342.561 213.716 342.689 213.304 342.944 212.952C343.203 212.597 343.549 212.322 343.984 212.127C344.421 211.929 344.909 211.83 345.448 211.83C345.992 211.83 346.476 211.928 346.9 212.123C347.323 212.315 347.659 212.579 347.906 212.915C348.156 213.25 348.288 213.631 348.302 214.057H347.312ZM351.832 220.541C351.43 220.541 351.066 220.465 350.739 220.314C350.411 220.16 350.152 219.939 349.959 219.65C349.767 219.359 349.67 219.007 349.67 218.594C349.67 218.231 349.742 217.937 349.885 217.712C350.028 217.483 350.219 217.305 350.458 217.175C350.697 217.046 350.961 216.95 351.25 216.887C351.542 216.821 351.834 216.769 352.129 216.73C352.514 216.681 352.826 216.643 353.065 216.619C353.307 216.591 353.483 216.546 353.593 216.483C353.706 216.419 353.762 216.309 353.762 216.153V216.12C353.762 215.713 353.651 215.396 353.428 215.171C353.208 214.945 352.874 214.833 352.426 214.833C351.961 214.833 351.597 214.934 351.333 215.138C351.069 215.341 350.883 215.559 350.776 215.79L349.852 215.46C350.017 215.075 350.237 214.775 350.512 214.561C350.789 214.343 351.092 214.192 351.419 214.107C351.749 214.019 352.074 213.975 352.393 213.975C352.596 213.975 352.83 214 353.094 214.049C353.36 214.096 353.618 214.193 353.865 214.342C354.115 214.49 354.323 214.715 354.488 215.014C354.653 215.314 354.735 215.715 354.735 216.219V220.393H353.762V219.535H353.712C353.646 219.672 353.536 219.819 353.382 219.976C353.228 220.133 353.024 220.266 352.768 220.376C352.512 220.486 352.2 220.541 351.832 220.541ZM351.98 219.667C352.365 219.667 352.69 219.591 352.953 219.44C353.22 219.289 353.421 219.093 353.556 218.854C353.693 218.615 353.762 218.363 353.762 218.099V217.208C353.721 217.258 353.63 217.303 353.49 217.345C353.352 217.383 353.193 217.417 353.011 217.448C352.832 217.475 352.658 217.5 352.487 217.522C352.32 217.541 352.184 217.558 352.079 217.571C351.826 217.604 351.59 217.658 351.37 217.732C351.152 217.804 350.976 217.912 350.842 218.058C350.71 218.201 350.644 218.396 350.644 218.644C350.644 218.982 350.769 219.238 351.019 219.411C351.272 219.581 351.592 219.667 351.98 219.667ZM359.267 214.057V214.882H355.984V214.057H359.267ZM356.941 212.54H357.914V218.578C357.914 218.853 357.954 219.059 358.034 219.196C358.116 219.331 358.221 219.422 358.347 219.469C358.477 219.513 358.613 219.535 358.756 219.535C358.863 219.535 358.951 219.529 359.02 219.518C359.088 219.504 359.143 219.493 359.185 219.485L359.383 220.36C359.317 220.384 359.224 220.409 359.106 220.434C358.988 220.461 358.838 220.475 358.657 220.475C358.382 220.475 358.112 220.416 357.848 220.298C357.587 220.179 357.37 219.999 357.197 219.757C357.026 219.515 356.941 219.21 356.941 218.842V212.54Z" fill="#888888"/>
<path d="M403.661 214.057C403.612 213.639 403.411 213.315 403.059 213.084C402.707 212.853 402.275 212.738 401.764 212.738C401.39 212.738 401.063 212.798 400.782 212.919C400.504 213.04 400.287 213.206 400.13 213.418C399.976 213.63 399.9 213.87 399.9 214.14C399.9 214.365 399.953 214.559 400.06 214.721C400.17 214.881 400.311 215.014 400.481 215.121C400.652 215.226 400.83 215.313 401.017 215.381C401.204 215.447 401.376 215.501 401.533 215.542L402.391 215.773C402.611 215.831 402.855 215.911 403.125 216.012C403.397 216.114 403.657 216.253 403.904 216.429C404.155 216.602 404.361 216.825 404.523 217.097C404.685 217.369 404.766 217.703 404.766 218.099C404.766 218.556 404.647 218.968 404.408 219.337C404.171 219.705 403.825 219.998 403.368 220.215C402.915 220.432 402.363 220.541 401.714 220.541C401.109 220.541 400.586 220.443 400.143 220.248C399.703 220.053 399.356 219.781 399.103 219.432C398.853 219.082 398.712 218.677 398.679 218.215H399.735C399.762 218.534 399.869 218.798 400.056 219.007C400.246 219.213 400.485 219.367 400.774 219.469C401.065 219.568 401.379 219.617 401.714 219.617C402.105 219.617 402.455 219.554 402.766 219.427C403.077 219.298 403.323 219.119 403.504 218.891C403.686 218.66 403.777 218.391 403.777 218.083C403.777 217.802 403.698 217.574 403.541 217.398C403.385 217.222 403.178 217.079 402.923 216.969C402.667 216.859 402.391 216.763 402.094 216.681L401.054 216.384C400.394 216.194 399.872 215.923 399.487 215.571C399.102 215.219 398.91 214.759 398.91 214.189C398.91 213.716 399.037 213.304 399.293 212.952C399.552 212.597 399.898 212.322 400.333 212.127C400.77 211.929 401.258 211.83 401.797 211.83C402.341 211.83 402.825 211.928 403.249 212.123C403.672 212.315 404.008 212.579 404.255 212.915C404.505 213.25 404.637 213.631 404.651 214.057H403.661ZM410.309 217.802V214.057H411.282V220.393H410.309V219.32H410.243C410.094 219.642 409.863 219.916 409.55 220.141C409.236 220.364 408.84 220.475 408.362 220.475C407.966 220.475 407.614 220.388 407.306 220.215C406.998 220.039 406.756 219.775 406.58 219.423C406.404 219.069 406.316 218.622 406.316 218.083V214.057H407.29V218.017C407.29 218.479 407.419 218.847 407.677 219.122C407.938 219.397 408.271 219.535 408.675 219.535C408.917 219.535 409.163 219.473 409.414 219.349C409.667 219.225 409.878 219.036 410.049 218.78C410.222 218.524 410.309 218.198 410.309 217.802ZM414.038 216.582V220.393H413.065V214.057H414.005V215.047H414.088C414.236 214.726 414.462 214.467 414.764 214.272C415.067 214.074 415.457 213.975 415.936 213.975C416.364 213.975 416.74 214.063 417.062 214.239C417.383 214.412 417.633 214.676 417.812 215.031C417.991 215.383 418.08 215.828 418.08 216.367V220.393H417.107V216.433C417.107 215.935 416.978 215.548 416.719 215.27C416.461 214.989 416.106 214.849 415.655 214.849C415.344 214.849 415.067 214.917 414.822 215.051C414.58 215.186 414.389 215.383 414.249 215.641C414.108 215.9 414.038 216.213 414.038 216.582Z" fill="#888888"/>
</svg>
