<svg width="20" height="27" viewBox="0 0 20 27" fill="none" xmlns="http://www.w3.org/2000/svg">
<path fill-rule="evenodd" clip-rule="evenodd" d="M11.3187 1.79722C11.3187 1.06892 10.7283 0.478516 10 0.478516C9.2717 0.478516 8.6813 1.06892 8.6813 1.79722V2.78625H7.94623C5.01201 2.78625 2.58348 5.06763 2.40032 7.99613L2.10888 12.6557C1.99777 14.4323 1.40133 16.1443 0.384528 17.6053C-0.534191 18.9254 0.283698 20.7486 1.88056 20.9403L6.37356 21.4794V22.8965C6.37356 24.8994 7.99718 26.523 10 26.523C12.0028 26.523 13.6264 24.8994 13.6264 22.8965V21.4794L18.1194 20.9403C19.7163 20.7486 20.5342 18.9254 19.6155 17.6053C18.5987 16.1443 18.0022 14.4323 17.8911 12.6557L17.5997 7.99613C17.4165 5.06763 14.988 2.78625 12.0538 2.78625H11.3187V1.79722ZM7.94623 4.76431C6.05652 4.76431 4.49248 6.23358 4.37452 8.11961L4.08309 12.7792C3.94938 14.917 3.23166 16.9771 2.0081 18.7353C1.9417 18.8307 2.00081 18.9624 2.11624 18.9763L7.04511 19.5678C9.008 19.8033 10.992 19.8033 12.9549 19.5678L17.8838 18.9763C17.9992 18.9624 18.0583 18.8307 17.9919 18.7353C16.7683 16.9771 16.0506 14.917 15.9169 12.7792L15.6255 8.1196C15.5075 6.23358 13.9435 4.76431 12.0538 4.76431H7.94623ZM10 24.5449C9.08963 24.5449 8.35162 23.8069 8.35162 22.8965V21.9075H11.6484V22.8965C11.6484 23.8069 10.9104 24.5449 10 24.5449Z" fill="#08102E"/>
</svg>
