<svg width="22" height="18" viewBox="0 0 22 18" fill="none" xmlns="http://www.w3.org/2000/svg">
<path d="M1.26172 7.97461H20.9694" stroke="#FF4A4A" stroke-width="1.68923" stroke-linecap="round" stroke-linejoin="round"/>
<path d="M19.5617 13.6055V15.717C19.5617 15.9037 19.4876 16.0827 19.3556 16.2147C19.2236 16.3467 19.0445 16.4209 18.8579 16.4209H16.7463C16.5597 16.4209 16.3806 16.3467 16.2486 16.2147C16.1166 16.0827 16.0425 15.9037 16.0425 15.717V13.6055" stroke="#FF4A4A" stroke-width="1.68923" stroke-linecap="round" stroke-linejoin="round"/>
<path d="M6.18866 13.6055V15.717C6.18866 15.9037 6.11451 16.0827 5.98251 16.2147C5.85052 16.3467 5.67149 16.4209 5.48482 16.4209H3.37328C3.18661 16.4209 3.00758 16.3467 2.87559 16.2147C2.74359 16.0827 2.66943 15.9037 2.66943 15.717V13.6055" stroke="#FF4A4A" stroke-width="1.68923" stroke-linecap="round" stroke-linejoin="round"/>
<path d="M5.48486 10.79H6.89256" stroke="#FF4A4A" stroke-width="1.68923" stroke-linecap="round" stroke-linejoin="round"/>
<path d="M15.3384 10.79H16.7461" stroke="#FF4A4A" stroke-width="1.68923" stroke-linecap="round" stroke-linejoin="round"/>
<path d="M19.5617 7.97426L16.9321 2.05764C16.8768 1.93322 16.7866 1.82751 16.6725 1.75332C16.5583 1.67914 16.4251 1.63965 16.2889 1.63965H5.94223C5.80608 1.63965 5.67285 1.67914 5.55869 1.75332C5.44454 1.82751 5.35434 1.93322 5.29905 2.05764L2.66943 7.97426V13.605H19.5617V7.97426Z" stroke="#FF4A4A" stroke-width="1.68923" stroke-linecap="round" stroke-linejoin="round"/>
</svg>
