<svg width="20" height="24" viewBox="0 0 20 24" fill="none" xmlns="http://www.w3.org/2000/svg">
<path d="M18.7619 1.97865C18.6224 1.86584 18.4595 1.78571 18.285 1.74417C18.1105 1.70262 17.9289 1.70071 17.7536 1.73857C16.4709 2.00739 15.1468 2.01081 13.8627 1.74863C12.5787 1.48646 11.3619 0.964225 10.2872 0.214094C10.0863 0.074697 9.84757 0 9.60301 0C9.35846 0 9.11974 0.074697 8.9188 0.214094C7.84417 0.964225 6.62737 1.48646 5.34332 1.74863C4.05927 2.01081 2.73514 2.00739 1.45246 1.73857C1.27713 1.70071 1.09555 1.70262 0.921056 1.74417C0.746564 1.78571 0.5836 1.86584 0.444146 1.97865C0.304877 2.09162 0.192692 2.23437 0.115834 2.3964C0.0389756 2.55842 -0.000602817 2.73561 6.93996e-06 2.91494V11.8577C-0.00106024 13.5788 0.409063 15.2752 1.19622 16.8056C1.98338 18.3361 3.1248 19.6564 4.52542 20.6565L8.9068 23.7775C9.11009 23.9222 9.35345 24 9.60301 24C9.85258 24 10.0959 23.9222 10.2992 23.7775L14.6806 20.6565C16.0812 19.6564 17.2226 18.3361 18.0098 16.8056C18.797 15.2752 19.2071 13.5788 19.206 11.8577V2.91494C19.2066 2.73561 19.1671 2.55842 19.0902 2.3964C19.0133 2.23437 18.9011 2.09162 18.7619 1.97865ZM16.8053 11.8577C16.8062 13.1959 16.4875 14.5149 15.8758 15.705C15.264 16.8951 14.3769 17.9219 13.2882 18.6999L9.60301 21.3287L5.91786 18.6999C4.82916 17.9219 3.94202 16.8951 3.33027 15.705C2.71851 14.5149 2.39984 13.1959 2.40076 11.8577V4.29537C4.91726 4.51076 7.43758 3.92688 9.60301 2.62685C11.7684 3.92688 14.2888 4.51076 16.8053 4.29537V11.8577ZM11.4516 9.10888L8.22258 12.3499L7.15425 11.2696C6.92821 11.0435 6.62164 10.9165 6.30198 10.9165C5.98232 10.9165 5.67575 11.0435 5.44971 11.2696C5.22368 11.4956 5.09669 11.8022 5.09669 12.1218C5.09669 12.4415 5.22368 12.7481 5.44971 12.9741L7.37031 14.8947C7.48191 15.0072 7.61467 15.0965 7.76094 15.1574C7.90722 15.2184 8.06412 15.2498 8.22258 15.2498C8.38105 15.2498 8.53794 15.2184 8.68422 15.1574C8.83049 15.0965 8.96326 15.0072 9.07485 14.8947L13.2041 10.8014C13.4302 10.5754 13.5572 10.2688 13.5572 9.94914C13.5572 9.62948 13.4302 9.32291 13.2041 9.09687C12.9781 8.87084 12.6715 8.74385 12.3519 8.74385C12.0322 8.74385 11.7256 8.87084 11.4996 9.09687L11.4516 9.10888Z" fill="#219653"/>
</svg>
