<svg width="24" height="23" viewBox="0 0 24 23" fill="none" xmlns="http://www.w3.org/2000/svg">
<path fill-rule="evenodd" clip-rule="evenodd" d="M10.0664 1.33428C10.9279 -0.150491 13.0721 -0.150487 13.9336 1.33428L16.5721 5.88129C16.8153 6.30041 17.2356 6.58642 17.7148 6.65879L22.0961 7.32053C24.0059 7.60899 24.6758 10.0203 23.1884 11.2526L19.9962 13.8973C19.5481 14.2686 19.3374 14.8541 19.4463 15.4257L20.3405 20.1217C20.6907 21.9612 18.7597 23.3904 17.1028 22.518L12.744 20.2229C12.2783 19.9777 11.7217 19.9777 11.256 20.2229L6.89722 22.518C5.24032 23.3904 3.30925 21.9612 3.65953 20.1217L4.55374 15.4257C4.66259 14.8541 4.45191 14.2686 4.00384 13.8973L0.811548 11.2526C-0.675799 10.0203 -0.00588529 7.60898 1.90394 7.32053L6.28524 6.65879C6.76437 6.58642 7.18472 6.30041 7.42792 5.88128L10.0664 1.33428ZM12.2762 2.296C12.1532 2.08389 11.8468 2.08389 11.7238 2.296L9.08532 6.84301C8.55029 7.76507 7.62551 8.39431 6.57141 8.55352L2.19011 9.21526C1.91728 9.25646 1.82158 9.60094 2.03406 9.77697L5.22635 12.4218C6.21209 13.2384 6.67559 14.5266 6.43614 15.7842L5.54192 20.4801C5.49189 20.7429 5.76775 20.9471 6.00445 20.8225L10.3633 18.5274C11.3877 17.9879 12.6123 17.9879 13.6367 18.5274L17.9955 20.8225C18.2323 20.9471 18.5081 20.7429 18.4581 20.4801L17.5639 15.7842C17.3244 14.5267 17.7879 13.2384 18.7736 12.4218L21.9659 9.77698C22.1784 9.60094 22.0827 9.25646 21.8099 9.21526L17.4286 8.55352C16.3745 8.39431 15.4497 7.76507 14.9147 6.84301L12.2762 2.296Z" fill="#08102E"/>
</svg>
