<svg width="1452" height="334" viewBox="0 0 1452 334" fill="none" xmlns="http://www.w3.org/2000/svg">
<path d="M1.01758 307.637H1450.98" stroke="#888888" stroke-width="0.5" stroke-linecap="round" stroke-linejoin="round"/>
<path d="M1.01758 267.975H1450.98" stroke="#CCCCCC" stroke-width="0.5" stroke-linecap="round" stroke-linejoin="round" stroke-dasharray="6 6"/>
<path d="M1.01758 184.986H1450.98" stroke="#CCCCCC" stroke-width="0.5" stroke-linecap="round" stroke-linejoin="round" stroke-dasharray="6 6"/>
<path d="M1.01758 102H1450.98" stroke="#CCCCCC" stroke-width="0.5" stroke-linecap="round" stroke-linejoin="round" stroke-dasharray="6 6"/>
<path d="M1.01758 226.48H1450.98" stroke="#CCCCCC" stroke-width="0.5" stroke-linecap="round" stroke-linejoin="round" stroke-dasharray="6 6"/>
<path d="M1.01758 143.494H1450.98" stroke="#CCCCCC" stroke-width="0.5" stroke-linecap="round" stroke-linejoin="round" stroke-dasharray="6 6"/>
<path d="M1.01758 60.5039H1450.98" stroke="#CCCCCC" stroke-width="0.5" stroke-linecap="round" stroke-linejoin="round" stroke-dasharray="6 6"/>
<rect x="17" y="143" width="24" height="151" fill="#6FCF97"/>
<rect x="41" y="208.275" width="24" height="85.724" fill="#BDBDBD"/>
<rect x="65" y="175.244" width="24" height="118.755" fill="#9B51E0"/>
<rect x="142" y="1" width="24" height="294" fill="#6FCF97"/>
<rect x="166" y="128.094" width="24" height="166.906" fill="#BDBDBD"/>
<rect x="190" y="63.7812" width="24" height="231.219" fill="#9B51E0"/>
<rect x="262" y="128" width="24" height="167" fill="#6FCF97"/>
<rect x="286" y="200.193" width="24" height="94.8073" fill="#BDBDBD"/>
<rect x="310" y="232.104" width="24" height="62.8961" fill="#9B51E0"/>
<rect x="382" y="61" width="24" height="234" fill="#6FCF97"/>
<rect x="406" y="162.156" width="24" height="132.844" fill="#BDBDBD"/>
<rect x="430" y="110.969" width="24" height="184.031" fill="#9B51E0"/>
<rect x="502" width="24" height="294" fill="#6FCF97"/>
<rect x="526" y="127.094" width="24" height="166.906" fill="#BDBDBD"/>
<rect x="550" y="62.7812" width="24" height="231.219" fill="#9B51E0"/>
<rect x="622" y="128" width="24" height="167" fill="#6FCF97"/>
<rect x="646" y="200.193" width="24" height="94.8073" fill="#BDBDBD"/>
<rect x="670" y="232.104" width="24" height="62.8961" fill="#9B51E0"/>
<rect x="742" y="103" width="24" height="192" fill="#6FCF97"/>
<rect x="766" y="186" width="24" height="109" fill="#BDBDBD"/>
<rect x="790" y="144" width="24" height="151" fill="#9B51E0"/>
<rect x="1352" y="103" width="24" height="192" fill="#6FCF97"/>
<rect x="1376" y="186" width="24" height="109" fill="#BDBDBD"/>
<rect x="1400" y="144" width="24" height="151" fill="#9B51E0"/>
<rect x="862" y="62" width="24" height="234" fill="#6FCF97"/>
<rect x="886" y="163.156" width="24" height="132.844" fill="#BDBDBD"/>
<rect x="910" y="111.969" width="24" height="184.031" fill="#9B51E0"/>
<rect x="984" y="1" width="24" height="294" fill="#6FCF97"/>
<rect x="1008" y="128.094" width="24" height="166.906" fill="#BDBDBD"/>
<rect x="1032" y="63.7812" width="24" height="231.219" fill="#9B51E0"/>
<rect x="1107" y="129" width="24" height="167" fill="#6FCF97"/>
<rect x="1131" y="201.193" width="24" height="94.8073" fill="#BDBDBD"/>
<rect x="1155" y="233.104" width="24" height="62.8961" fill="#9B51E0"/>
<rect x="1230" y="129" width="24" height="167" fill="#6FCF97"/>
<rect x="1254" y="201.193" width="24" height="94.8073" fill="#BDBDBD"/>
<rect x="1278" y="233.104" width="24" height="62.8961" fill="#9B51E0"/>
<path d="M44.0828 320.818H45.6141V328.037C45.6141 328.69 45.4848 329.248 45.2263 329.712C44.9711 330.176 44.6115 330.531 44.1475 330.776C43.6834 331.018 43.1399 331.139 42.5168 331.139C41.9434 331.139 41.428 331.035 40.9706 330.826C40.5165 330.617 40.1569 330.314 39.8918 329.916C39.6299 329.515 39.499 329.028 39.499 328.455H41.0253C41.0253 328.736 41.0899 328.98 41.2192 329.185C41.3518 329.391 41.5324 329.552 41.7611 329.668C41.9931 329.78 42.2583 329.837 42.5566 329.837C42.8814 329.837 43.1565 329.769 43.3818 329.633C43.6105 329.494 43.7845 329.29 43.9039 329.021C44.0232 328.753 44.0828 328.425 44.0828 328.037V320.818ZM48.7101 331H47.0795L50.7435 320.818H52.5184L56.1824 331H54.5518L51.6732 322.668H51.5937L48.7101 331ZM48.9836 327.013H54.2733V328.305H48.9836V327.013ZM65.8708 320.818V331H64.4589L59.2835 323.533H59.189V331H57.6528V320.818H59.0747L64.2551 328.295H64.3495V320.818H65.8708Z" fill="#888888"/>
<path d="M166.219 331V320.818H172.533V322.141H167.755V325.243H172.081V326.56H167.755V331H166.219ZM174.422 331V320.818H180.806V322.141H175.959V325.243H180.473V326.56H175.959V329.678H180.866V331H174.422ZM182.858 331V320.818H186.587C187.309 320.818 187.907 320.937 188.381 321.176C188.855 321.411 189.21 321.731 189.445 322.136C189.681 322.537 189.798 322.989 189.798 323.493C189.798 323.917 189.72 324.275 189.565 324.567C189.409 324.855 189.2 325.087 188.938 325.263C188.68 325.435 188.395 325.561 188.083 325.641V325.74C188.421 325.757 188.751 325.866 189.072 326.068C189.397 326.267 189.666 326.55 189.878 326.918C190.09 327.286 190.196 327.734 190.196 328.261C190.196 328.781 190.073 329.248 189.828 329.663C189.586 330.074 189.212 330.4 188.704 330.642C188.197 330.881 187.549 331 186.761 331H182.858ZM184.394 329.683H186.611C187.347 329.683 187.874 329.54 188.192 329.255C188.511 328.97 188.67 328.614 188.67 328.186C188.67 327.865 188.588 327.57 188.426 327.301C188.264 327.033 188.032 326.819 187.73 326.66C187.432 326.501 187.077 326.421 186.666 326.421H184.394V329.683ZM184.394 325.223H186.452C186.797 325.223 187.107 325.157 187.382 325.024C187.66 324.892 187.881 324.706 188.043 324.467C188.209 324.225 188.292 323.94 188.292 323.612C188.292 323.191 188.144 322.838 187.849 322.553C187.554 322.268 187.102 322.126 186.492 322.126H184.394V325.223Z" fill="#888888"/>
<path d="M283.423 320.818H285.288L288.529 328.733H288.648L291.89 320.818H293.754V331H292.293V323.632H292.198L289.195 330.985H287.982L284.979 323.627H284.885V331H283.423V320.818ZM296.848 331H295.217L298.881 320.818H300.656L304.32 331H302.689L299.811 322.668H299.731L296.848 331ZM297.121 327.013H302.411V328.305H297.121V327.013ZM305.79 331V320.818H309.42C310.209 320.818 310.863 320.954 311.384 321.226C311.907 321.498 312.298 321.874 312.557 322.354C312.815 322.832 312.945 323.384 312.945 324.01C312.945 324.633 312.814 325.182 312.552 325.656C312.293 326.126 311.902 326.492 311.379 326.754C310.858 327.016 310.204 327.147 309.415 327.147H306.665V325.825H309.276C309.773 325.825 310.177 325.753 310.489 325.611C310.804 325.468 311.034 325.261 311.18 324.989C311.326 324.718 311.398 324.391 311.398 324.01C311.398 323.625 311.324 323.292 311.175 323.011C311.029 322.729 310.799 322.513 310.484 322.364C310.172 322.212 309.763 322.136 309.256 322.136H307.327V331H305.79ZM310.817 326.406L313.332 331H311.582L309.116 326.406H310.817Z" fill="#888888"/>
<path d="M406.088 331H404.457L408.121 320.818H409.896L413.56 331H411.93L409.051 322.668H408.972L406.088 331ZM406.362 327.013H411.651V328.305H406.362V327.013ZM415.031 331V320.818H418.66C419.452 320.818 420.108 320.962 420.629 321.251C421.149 321.539 421.539 321.933 421.797 322.434C422.056 322.931 422.185 323.491 422.185 324.114C422.185 324.741 422.054 325.304 421.792 325.805C421.534 326.302 421.142 326.696 420.619 326.988C420.098 327.276 419.444 327.42 418.655 327.42H416.159V326.118H418.516C419.016 326.118 419.422 326.032 419.734 325.859C420.045 325.684 420.274 325.445 420.42 325.143C420.566 324.842 420.639 324.499 420.639 324.114C420.639 323.73 420.566 323.388 420.42 323.09C420.274 322.792 420.044 322.558 419.729 322.389C419.417 322.22 419.006 322.136 418.496 322.136H416.567V331H415.031ZM423.986 331V320.818H427.615C428.404 320.818 429.058 320.954 429.579 321.226C430.103 321.498 430.494 321.874 430.752 322.354C431.011 322.832 431.14 323.384 431.14 324.01C431.14 324.633 431.009 325.182 430.747 325.656C430.489 326.126 430.098 326.492 429.574 326.754C429.054 327.016 428.399 327.147 427.61 327.147H424.861V325.825H427.471C427.968 325.825 428.372 325.753 428.684 325.611C428.999 325.468 429.229 325.261 429.375 324.989C429.521 324.718 429.594 324.391 429.594 324.01C429.594 323.625 429.519 323.292 429.37 323.011C429.224 322.729 428.994 322.513 428.679 322.364C428.367 322.212 427.958 322.136 427.451 322.136H425.522V331H423.986ZM429.012 326.406L431.528 331H429.778L427.312 326.406H429.012Z" fill="#888888"/>
<path d="M524.163 320.818H526.027L529.268 328.733H529.388L532.629 320.818H534.494V331H533.032V323.632H532.937L529.935 330.985H528.722L525.719 323.627H525.624V331H524.163V320.818ZM537.587 331H535.956L539.62 320.818H541.395L545.059 331H543.429L540.55 322.668H540.471L537.587 331ZM537.861 327.013H543.15V328.305H537.861V327.013ZM544.705 320.818H546.45L549.11 325.447H549.219L551.879 320.818H553.624L549.93 327.003V331H548.399V327.003L544.705 320.818Z" fill="#888888"/>
<path d="M649.323 320.818H650.854V328.037C650.854 328.69 650.725 329.248 650.467 329.712C650.211 330.176 649.852 330.531 649.388 330.776C648.924 331.018 648.38 331.139 647.757 331.139C647.184 331.139 646.668 331.035 646.211 330.826C645.757 330.617 645.397 330.314 645.132 329.916C644.87 329.515 644.739 329.028 644.739 328.455H646.266C646.266 328.736 646.33 328.98 646.459 329.185C646.592 329.391 646.773 329.552 647.001 329.668C647.233 329.78 647.498 329.837 647.797 329.837C648.122 329.837 648.397 329.769 648.622 329.633C648.851 329.494 649.025 329.29 649.144 329.021C649.263 328.753 649.323 328.425 649.323 328.037V320.818ZM659.638 320.818H661.179V327.515C661.179 328.228 661.012 328.859 660.677 329.409C660.342 329.956 659.872 330.387 659.265 330.702C658.658 331.013 657.948 331.169 657.132 331.169C656.32 331.169 655.611 331.013 655.004 330.702C654.398 330.387 653.927 329.956 653.592 329.409C653.258 328.859 653.09 328.228 653.09 327.515V320.818H654.627V327.391C654.627 327.851 654.728 328.261 654.93 328.619C655.135 328.977 655.425 329.258 655.8 329.464C656.174 329.666 656.618 329.767 657.132 329.767C657.649 329.767 658.095 329.666 658.47 329.464C658.847 329.258 659.136 328.977 659.335 328.619C659.537 328.261 659.638 327.851 659.638 327.391V320.818ZM671.631 320.818V331H670.219L665.043 323.533H664.949V331H663.413V320.818H664.834L670.015 328.295H670.109V320.818H671.631Z" fill="#888888"/>
<path d="M770.101 320.818H771.633V328.037C771.633 328.69 771.503 329.248 771.245 329.712C770.99 330.176 770.63 330.531 770.166 330.776C769.702 331.018 769.158 331.139 768.535 331.139C767.962 331.139 767.447 331.035 766.989 330.826C766.535 330.617 766.175 330.314 765.91 329.916C765.648 329.515 765.518 329.028 765.518 328.455H767.044C767.044 328.736 767.108 328.98 767.238 329.185C767.37 329.391 767.551 329.552 767.78 329.668C768.012 329.78 768.277 329.837 768.575 329.837C768.9 329.837 769.175 329.769 769.4 329.633C769.629 329.494 769.803 329.29 769.922 329.021C770.042 328.753 770.101 328.425 770.101 328.037V320.818ZM780.416 320.818H781.957V327.515C781.957 328.228 781.79 328.859 781.455 329.409C781.121 329.956 780.65 330.387 780.043 330.702C779.437 331.013 778.726 331.169 777.911 331.169C777.098 331.169 776.389 331.013 775.783 330.702C775.176 330.387 774.705 329.956 774.371 329.409C774.036 328.859 773.869 328.228 773.869 327.515V320.818H775.405V327.391C775.405 327.851 775.506 328.261 775.708 328.619C775.914 328.977 776.204 329.258 776.578 329.464C776.953 329.666 777.397 329.767 777.911 329.767C778.428 329.767 778.873 329.666 779.248 329.464C779.626 329.258 779.914 328.977 780.113 328.619C780.315 328.261 780.416 327.851 780.416 327.391V320.818ZM784.191 331V320.818H785.727V329.678H790.341V331H784.191Z" fill="#888888"/>
<path d="M885.173 331H883.542L887.206 320.818H888.981L892.645 331H891.015L888.136 322.668H888.057L885.173 331ZM885.446 327.013H890.736V328.305H885.446V327.013ZM900.663 320.818H902.204V327.515C902.204 328.228 902.037 328.859 901.702 329.409C901.368 329.956 900.897 330.387 900.29 330.702C899.684 331.013 898.973 331.169 898.158 331.169C897.346 331.169 896.636 331.013 896.03 330.702C895.423 330.387 894.953 329.956 894.618 329.409C894.283 328.859 894.116 328.228 894.116 327.515V320.818H895.652V327.391C895.652 327.851 895.753 328.261 895.955 328.619C896.161 328.977 896.451 329.258 896.825 329.464C897.2 329.666 897.644 329.767 898.158 329.767C898.675 329.767 899.12 329.666 899.495 329.464C899.873 329.258 900.161 328.977 900.36 328.619C900.562 328.261 900.663 327.851 900.663 327.391V320.818ZM911.329 324.035C911.232 323.733 911.103 323.463 910.941 323.224C910.782 322.982 910.591 322.777 910.369 322.608C910.147 322.436 909.893 322.305 909.608 322.215C909.327 322.126 909.017 322.081 908.679 322.081C908.105 322.081 907.588 322.228 907.128 322.523C906.667 322.818 906.302 323.251 906.034 323.821C905.769 324.388 905.636 325.082 905.636 325.904C905.636 326.729 905.77 327.427 906.039 327.997C906.307 328.567 906.675 329 907.142 329.295C907.61 329.59 908.142 329.737 908.738 329.737C909.292 329.737 909.774 329.625 910.185 329.399C910.599 329.174 910.919 328.856 911.145 328.445C911.373 328.03 911.488 327.543 911.488 326.983L911.885 327.058H908.972V325.79H912.974V326.948C912.974 327.803 912.792 328.546 912.427 329.175C912.066 329.802 911.566 330.286 910.926 330.627C910.29 330.969 909.56 331.139 908.738 331.139C907.817 331.139 907.008 330.927 906.312 330.503C905.62 330.079 905.079 329.477 904.691 328.698C904.304 327.916 904.11 326.988 904.11 325.914C904.11 325.102 904.223 324.373 904.448 323.727C904.673 323.08 904.99 322.532 905.397 322.081C905.808 321.627 906.291 321.281 906.844 321.042C907.401 320.8 908.009 320.679 908.669 320.679C909.219 320.679 909.731 320.76 910.205 320.923C910.682 321.085 911.107 321.315 911.478 321.614C911.852 321.912 912.162 322.267 912.407 322.678C912.653 323.085 912.818 323.538 912.905 324.035H911.329Z" fill="#888888"/>
<path d="M1012.97 323.493C1012.92 323.022 1012.7 322.658 1012.32 322.399C1011.93 322.137 1011.45 322.006 1010.86 322.006C1010.45 322.006 1010.08 322.073 1009.78 322.205C1009.47 322.335 1009.24 322.513 1009.07 322.742C1008.9 322.968 1008.82 323.224 1008.82 323.513C1008.82 323.755 1008.88 323.964 1008.99 324.139C1009.11 324.315 1009.26 324.462 1009.44 324.582C1009.63 324.698 1009.83 324.795 1010.05 324.875C1010.26 324.951 1010.47 325.014 1010.67 325.064L1011.66 325.322C1011.99 325.402 1012.32 325.51 1012.66 325.646C1013 325.781 1013.32 325.96 1013.61 326.183C1013.9 326.405 1014.14 326.68 1014.32 327.008C1014.5 327.336 1014.59 327.729 1014.59 328.186C1014.59 328.763 1014.44 329.275 1014.14 329.722C1013.85 330.17 1013.42 330.523 1012.86 330.781C1012.3 331.04 1011.62 331.169 1010.82 331.169C1010.06 331.169 1009.4 331.048 1008.85 330.806C1008.29 330.564 1007.85 330.221 1007.54 329.777C1007.22 329.33 1007.05 328.799 1007.02 328.186H1008.56C1008.59 328.554 1008.71 328.861 1008.91 329.106C1009.13 329.348 1009.4 329.528 1009.73 329.648C1010.06 329.764 1010.42 329.822 1010.81 329.822C1011.25 329.822 1011.63 329.754 1011.97 329.618C1012.31 329.479 1012.58 329.286 1012.78 329.041C1012.97 328.793 1013.07 328.503 1013.07 328.171C1013.07 327.87 1012.98 327.623 1012.81 327.43C1012.64 327.238 1012.41 327.079 1012.12 326.953C1011.83 326.827 1011.51 326.716 1011.14 326.62L1009.94 326.292C1009.12 326.07 1008.48 325.743 1008 325.312C1007.53 324.882 1007.29 324.312 1007.29 323.602C1007.29 323.016 1007.45 322.504 1007.77 322.066C1008.08 321.629 1008.52 321.289 1009.06 321.047C1009.6 320.802 1010.22 320.679 1010.9 320.679C1011.59 320.679 1012.2 320.8 1012.72 321.042C1013.25 321.284 1013.67 321.617 1013.98 322.041C1014.28 322.462 1014.44 322.946 1014.45 323.493H1012.97ZM1016.43 331V320.818H1022.81V322.141H1017.96V325.243H1022.48V326.56H1017.96V329.678H1022.87V331H1016.43ZM1024.86 331V320.818H1028.49C1029.29 320.818 1029.94 320.962 1030.46 321.251C1030.98 321.539 1031.37 321.933 1031.63 322.434C1031.89 322.931 1032.02 323.491 1032.02 324.114C1032.02 324.741 1031.89 325.304 1031.63 325.805C1031.37 326.302 1030.98 326.696 1030.45 326.988C1029.93 327.276 1029.28 327.42 1028.49 327.42H1025.99V326.118H1028.35C1028.85 326.118 1029.26 326.032 1029.57 325.859C1029.88 325.684 1030.11 325.445 1030.25 325.143C1030.4 324.842 1030.47 324.499 1030.47 324.114C1030.47 323.73 1030.4 323.388 1030.25 323.09C1030.11 322.792 1029.88 322.558 1029.56 322.389C1029.25 322.22 1028.84 322.136 1028.33 322.136H1026.4V331H1024.86Z" fill="#888888"/>
<path d="M1138.38 325.909C1138.38 326.996 1138.18 327.931 1137.78 328.713C1137.38 329.492 1136.84 330.092 1136.14 330.513C1135.45 330.93 1134.67 331.139 1133.79 331.139C1132.91 331.139 1132.12 330.93 1131.43 330.513C1130.74 330.092 1130.2 329.49 1129.8 328.708C1129.4 327.926 1129.2 326.993 1129.2 325.909C1129.2 324.822 1129.4 323.889 1129.8 323.11C1130.2 322.328 1130.74 321.728 1131.43 321.31C1132.12 320.889 1132.91 320.679 1133.79 320.679C1134.67 320.679 1135.45 320.889 1136.14 321.31C1136.84 321.728 1137.38 322.328 1137.78 323.11C1138.18 323.889 1138.38 324.822 1138.38 325.909ZM1136.85 325.909C1136.85 325.08 1136.72 324.383 1136.45 323.816C1136.19 323.246 1135.82 322.815 1135.36 322.523C1134.9 322.228 1134.38 322.081 1133.79 322.081C1133.21 322.081 1132.68 322.228 1132.22 322.523C1131.76 322.815 1131.4 323.246 1131.13 323.816C1130.86 324.383 1130.73 325.08 1130.73 325.909C1130.73 326.738 1130.86 327.437 1131.13 328.007C1131.4 328.574 1131.76 329.005 1132.22 329.3C1132.68 329.591 1133.21 329.737 1133.79 329.737C1134.38 329.737 1134.9 329.591 1135.36 329.3C1135.82 329.005 1136.19 328.574 1136.45 328.007C1136.72 327.437 1136.85 326.738 1136.85 325.909ZM1148.75 324.129H1147.2C1147.14 323.798 1147.03 323.506 1146.86 323.254C1146.7 323.002 1146.5 322.789 1146.27 322.613C1146.03 322.437 1145.77 322.305 1145.48 322.215C1145.19 322.126 1144.88 322.081 1144.56 322.081C1143.97 322.081 1143.45 322.228 1142.98 322.523C1142.52 322.818 1142.16 323.251 1141.89 323.821C1141.62 324.391 1141.49 325.087 1141.49 325.909C1141.49 326.738 1141.62 327.437 1141.89 328.007C1142.16 328.577 1142.52 329.008 1142.99 329.3C1143.45 329.591 1143.97 329.737 1144.55 329.737C1144.87 329.737 1145.18 329.694 1145.47 329.608C1145.76 329.518 1146.02 329.388 1146.26 329.215C1146.49 329.043 1146.69 328.832 1146.85 328.584C1147.02 328.332 1147.13 328.044 1147.2 327.719L1148.75 327.724C1148.67 328.224 1148.5 328.685 1148.27 329.106C1148.03 329.523 1147.73 329.885 1147.36 330.19C1146.99 330.491 1146.57 330.725 1146.09 330.891C1145.62 331.056 1145.1 331.139 1144.54 331.139C1143.66 331.139 1142.88 330.93 1142.19 330.513C1141.5 330.092 1140.95 329.49 1140.55 328.708C1140.16 327.926 1139.96 326.993 1139.96 325.909C1139.96 324.822 1140.16 323.889 1140.56 323.11C1140.96 322.328 1141.5 321.728 1142.19 321.31C1142.88 320.889 1143.66 320.679 1144.54 320.679C1145.08 320.679 1145.59 320.757 1146.05 320.913C1146.52 321.065 1146.95 321.29 1147.32 321.589C1147.7 321.884 1148.01 322.245 1148.25 322.673C1148.5 323.097 1148.66 323.582 1148.75 324.129ZM1150.08 322.141V320.818H1157.96V322.141H1154.79V331H1153.26V322.141H1150.08Z" fill="#888888"/>
<path d="M1259.58 320.818V331H1258.17L1252.99 323.533H1252.9V331H1251.36V320.818H1252.78L1257.96 328.295H1258.06V320.818H1259.58ZM1270.66 325.909C1270.66 326.996 1270.47 327.931 1270.07 328.713C1269.67 329.492 1269.12 330.092 1268.43 330.513C1267.74 330.93 1266.96 331.139 1266.08 331.139C1265.2 331.139 1264.41 330.93 1263.72 330.513C1263.03 330.092 1262.49 329.49 1262.09 328.708C1261.69 327.926 1261.49 326.993 1261.49 325.909C1261.49 324.822 1261.69 323.889 1262.09 323.11C1262.49 322.328 1263.03 321.728 1263.72 321.31C1264.41 320.889 1265.2 320.679 1266.08 320.679C1266.96 320.679 1267.74 320.889 1268.43 321.31C1269.12 321.728 1269.67 322.328 1270.07 323.11C1270.47 323.889 1270.66 324.822 1270.66 325.909ZM1269.14 325.909C1269.14 325.08 1269.01 324.383 1268.74 323.816C1268.48 323.246 1268.11 322.815 1267.65 322.523C1267.19 322.228 1266.66 322.081 1266.08 322.081C1265.49 322.081 1264.97 322.228 1264.51 322.523C1264.05 322.815 1263.68 323.246 1263.42 323.816C1263.15 324.383 1263.02 325.08 1263.02 325.909C1263.02 326.738 1263.15 327.437 1263.42 328.007C1263.68 328.574 1264.05 329.005 1264.51 329.3C1264.97 329.591 1265.49 329.737 1266.08 329.737C1266.66 329.737 1267.19 329.591 1267.65 329.3C1268.11 329.005 1268.48 328.574 1268.74 328.007C1269.01 327.437 1269.14 326.738 1269.14 325.909ZM1272.96 320.818L1275.8 329.111H1275.91L1278.75 320.818H1280.41L1276.74 331H1274.97L1271.3 320.818H1272.96Z" fill="#888888"/>
<path d="M1378.5 331H1375.2V320.818H1378.6C1379.6 320.818 1380.46 321.022 1381.17 321.43C1381.89 321.834 1382.44 322.416 1382.82 323.175C1383.2 323.93 1383.39 324.837 1383.39 325.894C1383.39 326.955 1383.2 327.866 1382.81 328.629C1382.43 329.391 1381.87 329.978 1381.14 330.388C1380.41 330.796 1379.53 331 1378.5 331ZM1376.74 329.658H1378.41C1379.19 329.658 1379.83 329.512 1380.35 329.22C1380.86 328.925 1381.25 328.499 1381.5 327.942C1381.76 327.382 1381.88 326.7 1381.88 325.894C1381.88 325.095 1381.76 324.418 1381.5 323.861C1381.25 323.304 1380.87 322.881 1380.37 322.593C1379.87 322.305 1379.25 322.161 1378.51 322.161H1376.74V329.658ZM1385.31 331V320.818H1391.69V322.141H1386.84V325.243H1391.36V326.56H1386.84V329.678H1391.75V331H1385.31ZM1402.2 324.129H1400.65C1400.59 323.798 1400.48 323.506 1400.31 323.254C1400.15 323.002 1399.95 322.789 1399.72 322.613C1399.48 322.437 1399.22 322.305 1398.93 322.215C1398.64 322.126 1398.33 322.081 1398.01 322.081C1397.42 322.081 1396.89 322.228 1396.43 322.523C1395.97 322.818 1395.61 323.251 1395.34 323.821C1395.07 324.391 1394.94 325.087 1394.94 325.909C1394.94 326.738 1395.07 327.437 1395.34 328.007C1395.61 328.577 1395.97 329.008 1396.44 329.3C1396.9 329.591 1397.42 329.737 1398 329.737C1398.32 329.737 1398.63 329.694 1398.92 329.608C1399.21 329.518 1399.47 329.388 1399.71 329.215C1399.94 329.043 1400.14 328.832 1400.3 328.584C1400.47 328.332 1400.58 328.044 1400.65 327.719L1402.2 327.724C1402.11 328.224 1401.95 328.685 1401.72 329.106C1401.48 329.523 1401.18 329.885 1400.81 330.19C1400.44 330.491 1400.02 330.725 1399.54 330.891C1399.07 331.056 1398.55 331.139 1397.99 331.139C1397.11 331.139 1396.32 330.93 1395.63 330.513C1394.95 330.092 1394.4 329.49 1394 328.708C1393.61 327.926 1393.41 326.993 1393.41 325.909C1393.41 324.822 1393.61 323.889 1394.01 323.11C1394.41 322.328 1394.95 321.728 1395.64 321.31C1396.33 320.889 1397.11 320.679 1397.99 320.679C1398.53 320.679 1399.04 320.757 1399.5 320.913C1399.97 321.065 1400.4 321.29 1400.77 321.589C1401.15 321.884 1401.45 322.245 1401.7 322.673C1401.95 323.097 1402.11 323.582 1402.2 324.129Z" fill="#888888"/>
</svg>
