<svg width="28" height="24" viewBox="0 0 28 24" fill="none" xmlns="http://www.w3.org/2000/svg">
<path fill-rule="evenodd" clip-rule="evenodd" d="M4.94727 6.0074C4.94727 2.68961 7.63688 0 10.9547 0C14.2725 0 16.9621 2.68961 16.9621 6.0074C16.9621 9.3252 14.2725 12.0148 10.9547 12.0148C7.63688 12.0148 4.94727 9.3252 4.94727 6.0074ZM10.9547 2.12026C8.80786 2.12026 7.06753 3.86059 7.06753 6.0074C7.06753 8.15421 8.80786 9.89454 10.9547 9.89454C13.1015 9.89454 14.8418 8.15421 14.8418 6.0074C14.8418 3.86059 13.1015 2.12026 10.9547 2.12026Z" fill="#FF6600"/>
<path fill-rule="evenodd" clip-rule="evenodd" d="M0 19.4357C0 16.5082 2.37318 14.1351 5.30065 14.1351H5.78247C6.04325 14.1351 6.30239 14.1763 6.55029 14.2572L7.7737 14.6567C9.84065 15.3316 12.0687 15.3316 14.1356 14.6567L15.3591 14.2572C15.607 14.1763 15.8661 14.1351 16.1269 14.1351H16.6087C19.5362 14.1351 21.9093 16.5082 21.9093 19.4357V21.1154C21.9093 22.1801 21.1377 23.0879 20.087 23.2594C14.0388 24.2469 7.87054 24.2469 1.82239 23.2594C0.77161 23.0879 0 22.18 0 21.1154V19.4357ZM5.30065 16.2553C3.54417 16.2553 2.12026 17.6792 2.12026 19.4357V21.1154C2.12026 21.1409 2.13879 21.1627 2.16404 21.1669C7.98592 22.1174 13.9234 22.1174 19.7453 21.1669C19.7706 21.1627 19.7891 21.1409 19.7891 21.1154V19.4357C19.7891 17.6792 18.3652 16.2553 16.6087 16.2553H16.1269C16.0896 16.2553 16.0526 16.2612 16.0172 16.2728L14.7938 16.6723C12.2992 17.4868 9.61016 17.4868 7.11557 16.6723L5.89216 16.2728C5.85674 16.2612 5.81972 16.2553 5.78247 16.2553H5.30065Z" fill="#FF6600"/>
<path d="M22.9695 4.24052C23.555 4.24052 24.0296 4.71515 24.0296 5.30065V7.77428H26.5032C27.0887 7.77428 27.5634 8.24892 27.5634 8.83441C27.5634 9.41991 27.0887 9.89454 26.5032 9.89454H24.0296V12.3682C24.0296 12.9537 23.555 13.4283 22.9695 13.4283C22.384 13.4283 21.9093 12.9537 21.9093 12.3682V9.89454H19.4357C18.8502 9.89454 18.3756 9.41991 18.3756 8.83441C18.3756 8.24892 18.8502 7.77428 19.4357 7.77428H21.9093V5.30065C21.9093 4.71515 22.384 4.24052 22.9695 4.24052Z" fill="#FF6600"/>
</svg>
