<svg width="20" height="25" viewBox="0 0 20 25" fill="none" xmlns="http://www.w3.org/2000/svg">
<path d="M19.4353 9.69889C19.3358 9.50148 19.1836 9.33548 18.9956 9.21928C18.8075 9.10307 18.591 9.04121 18.3699 9.04053H12.3849V1.85852C12.3978 1.596 12.3239 1.33655 12.1746 1.12021C12.0253 0.903878 11.809 0.742688 11.559 0.661523C11.3187 0.582452 11.0595 0.581564 10.8186 0.658984C10.5777 0.736405 10.3676 0.888153 10.2184 1.09244L0.64234 14.2595C0.52236 14.4329 0.450316 14.6349 0.4335 14.8451C0.416684 15.0553 0.455694 15.2662 0.54658 15.4565C0.630277 15.674 0.775672 15.8624 0.96492 15.9985C1.15417 16.1346 1.37903 16.2125 1.61191 16.2225H7.59692V23.4046C7.59711 23.657 7.67708 23.9029 7.82542 24.1071C7.97376 24.3113 8.18287 24.4635 8.42285 24.5417C8.54312 24.579 8.66804 24.5991 8.79392 24.6016C8.98279 24.6021 9.1691 24.5578 9.33761 24.4725C9.50612 24.3872 9.65206 24.2633 9.76349 24.1108L19.3395 10.9438C19.4685 10.7652 19.5457 10.5544 19.5626 10.3348C19.5795 10.1152 19.5354 9.89511 19.4353 9.69889ZM9.99092 19.7178V15.0255C9.99092 14.7081 9.86481 14.4036 9.64033 14.1791C9.41585 13.9547 9.11139 13.8285 8.79392 13.8285H4.00592L9.99092 5.54529V10.2375C9.99092 10.555 10.117 10.8595 10.3415 11.0839C10.566 11.3084 10.8705 11.4345 11.1879 11.4345H15.9759L9.99092 19.7178Z" fill="#E54E0D"/>
</svg>
