<svg width="20" height="25" viewBox="0 0 20 25" fill="none" xmlns="http://www.w3.org/2000/svg">
<path d="M19.0173 10.0465C18.9178 9.84914 18.7656 9.68314 18.5776 9.56693C18.3896 9.45073 18.173 9.38886 17.952 9.38819H11.967V2.20618C11.9798 1.94366 11.9059 1.68421 11.7566 1.46787C11.6073 1.25153 11.391 1.09034 11.141 1.00918C10.9007 0.930109 10.6415 0.92922 10.4006 1.00664C10.1598 1.08406 9.94963 1.23581 9.80039 1.4401L0.224372 14.6071C0.104391 14.7805 0.0323469 14.9825 0.0155312 15.1927C-0.00128439 15.4029 0.0377252 15.6138 0.128611 15.8041C0.212308 16.0217 0.357704 16.2101 0.546951 16.3461C0.736199 16.4822 0.961064 16.5601 1.19394 16.5702H7.17895V23.7522C7.17914 24.0046 7.25912 24.2505 7.40745 24.4548C7.55579 24.659 7.7649 24.8111 8.00488 24.8894C8.12515 24.9266 8.25007 24.9468 8.37595 24.9492C8.56482 24.9497 8.75113 24.9055 8.91964 24.8202C9.08815 24.7349 9.23409 24.6109 9.34553 24.4584L18.9215 11.2914C19.0505 11.1128 19.1277 10.9021 19.1446 10.6825C19.1615 10.4628 19.1174 10.2428 19.0173 10.0465ZM9.57296 20.0654V15.3732C9.57296 15.0557 9.44684 14.7513 9.22236 14.5268C8.99788 14.3023 8.69342 14.1762 8.37595 14.1762H3.58795L9.57296 5.89295V10.5852C9.57296 10.9027 9.69907 11.2071 9.92355 11.4316C10.148 11.6561 10.4525 11.7822 10.77 11.7822H15.558L9.57296 20.0654Z" fill="#9B51E0"/>
</svg>
