<svg width="26" height="26" viewBox="0 0 26 26" fill="none" xmlns="http://www.w3.org/2000/svg">
<path d="M13.3687 7.28711V13.9538" stroke="#28BE5B" stroke-width="2.17302" stroke-linecap="round" stroke-linejoin="round"/>
<path d="M9.02892 1.57227H17.7077C17.8328 1.57227 17.9566 1.5969 18.0721 1.64476C18.1877 1.69262 18.2927 1.76278 18.3811 1.85121L24.5179 7.98802C24.6064 8.07646 24.6765 8.18145 24.7244 8.297C24.7722 8.41254 24.7969 8.53639 24.7969 8.66146V17.3402C24.7969 17.4653 24.7722 17.5891 24.7244 17.7047C24.6765 17.8202 24.6064 17.9252 24.5179 18.0137L18.3811 24.1505C18.2927 24.2389 18.1877 24.309 18.0721 24.3569C17.9566 24.4048 17.8328 24.4294 17.7077 24.4294H9.02892C8.90386 24.4294 8.78001 24.4048 8.66446 24.3569C8.54891 24.309 8.44393 24.2389 8.35549 24.1505L2.21868 18.0137C2.13024 17.9252 2.06009 17.8202 2.01223 17.7047C1.96437 17.5891 1.93973 17.4653 1.93973 17.3402V8.66146C1.93973 8.53639 1.96437 8.41254 2.01223 8.297C2.06009 8.18145 2.13024 8.07646 2.21868 7.98802L8.35549 1.85121C8.44393 1.76278 8.54891 1.69262 8.66446 1.64476C8.78001 1.5969 8.90386 1.57227 9.02892 1.57227Z" stroke="#28BE5B" stroke-width="2.17302" stroke-miterlimit="10"/>
<path d="M13.3685 19.6677C12.5796 19.6677 11.94 19.0281 11.94 18.2391C11.94 17.4501 12.5796 16.8105 13.3685 16.8105C14.1575 16.8105 14.7971 17.4501 14.7971 18.2391C14.7971 19.0281 14.1575 19.6677 13.3685 19.6677Z" fill="#28BE5B"/>
</svg>
