<svg width="24" height="23" viewBox="0 0 24 23" fill="none" xmlns="http://www.w3.org/2000/svg">
<path d="M13.2065 7.48674C13.2065 8.15304 12.6663 8.69318 12 8.69318C11.3337 8.69318 10.7936 8.15304 10.7936 7.48674C10.7936 6.82044 11.3337 6.28029 12 6.28029C12.6663 6.28029 13.2065 6.82044 13.2065 7.48674Z" fill="white"/>
<path d="M12 10.8045C12.4998 10.8045 12.9049 11.2096 12.9049 11.7093V17.7415C12.9049 18.2413 12.4998 18.6464 12 18.6464C11.5003 18.6464 11.0952 18.2413 11.0952 17.7415V11.7093C11.0952 11.2096 11.5003 10.8045 12 10.8045Z" fill="white"/>
<path fill-rule="evenodd" clip-rule="evenodd" d="M14.7391 1.44563C13.4217 -0.481871 10.5783 -0.481878 9.26093 1.44562L8.73984 2.20803C5.47514 6.98461 2.6702 12.0597 0.362599 17.3652L0.25376 17.6155C-0.559451 19.4852 0.66915 21.6082 2.69543 21.8346C8.87922 22.5258 15.1208 22.5258 21.3046 21.8346C23.3309 21.6082 24.5595 19.4852 23.7462 17.6155L23.6374 17.3652C21.3298 12.0597 18.5249 6.98461 15.2602 2.20803L14.7391 1.44563ZM10.755 2.46677C11.3538 1.59064 12.6462 1.59063 13.245 2.46677L13.7661 3.22918C16.9663 7.91142 19.7159 12.8862 21.9779 18.087L22.0867 18.3372C22.4142 19.0901 21.9195 19.945 21.1036 20.0362C15.0534 20.7124 8.94664 20.7124 2.89643 20.0362C2.08052 19.945 1.5858 19.0901 1.91326 18.3372L2.0221 18.087C4.28412 12.8862 7.03366 7.91141 10.2339 3.22918L10.755 2.46677Z" fill="white"/>
</svg>
