<svg width="20" height="25" viewBox="0 0 20 25" fill="none" xmlns="http://www.w3.org/2000/svg">
<path d="M19.4354 9.69889C19.3359 9.50148 19.1837 9.33548 18.9957 9.21928C18.8077 9.10307 18.5911 9.04121 18.3701 9.04053H12.3851V1.85852C12.3979 1.596 12.324 1.33655 12.1747 1.12021C12.0254 0.903878 11.8091 0.742688 11.5591 0.661523C11.3188 0.582452 11.0596 0.581564 10.8187 0.658984C10.5779 0.736405 10.3677 0.888153 10.2185 1.09244L0.642462 14.2595C0.522482 14.4329 0.450438 14.6349 0.433622 14.8451C0.416806 15.0553 0.455816 15.2662 0.546702 15.4565C0.630399 15.674 0.775794 15.8624 0.965042 15.9985C1.15429 16.1346 1.37915 16.2125 1.61203 16.2225H7.59704V23.4046C7.59723 23.657 7.67721 23.9029 7.82554 24.1071C7.97388 24.3113 8.18299 24.4635 8.42297 24.5417C8.54324 24.579 8.66816 24.5991 8.79404 24.6016C8.98291 24.6021 9.16922 24.5578 9.33773 24.4725C9.50625 24.3872 9.65218 24.2633 9.76362 24.1108L19.3396 10.9438C19.4686 10.7652 19.5458 10.5544 19.5627 10.3348C19.5796 10.1152 19.5355 9.89511 19.4354 9.69889ZM9.99105 19.7178V15.0255C9.99105 14.7081 9.86493 14.4036 9.64045 14.1791C9.41597 13.9547 9.11151 13.8285 8.79404 13.8285H4.00604L9.99105 5.54529V10.2375C9.99105 10.555 10.1172 10.8595 10.3416 11.0839C10.5661 11.3084 10.8706 11.4345 11.188 11.4345H15.9761L9.99105 19.7178Z" fill="white"/>
</svg>
