<svg width="38" height="39" viewBox="0 0 38 39" fill="none" xmlns="http://www.w3.org/2000/svg">
<mask id="path-1-outside-1_1138_38494" maskUnits="userSpaceOnUse" x="0" y="0.998047" width="38" height="38" fill="black">
<rect fill="white" y="0.998047" width="38" height="38"/>
<path d="M4.07125 6.71689L13.5592 34.1265C13.6486 34.3846 13.8172 34.6079 14.0411 34.7644C14.2649 34.9209 14.5325 35.0026 14.8056 34.9979C15.0787 34.9931 15.3433 34.9021 15.5616 34.738C15.7799 34.5738 15.9407 34.3448 16.021 34.0838L19.8346 21.6897C19.8967 21.4877 20.0073 21.3041 20.1567 21.1547C20.3061 21.0053 20.4897 20.8948 20.6916 20.8326L33.0857 17.0191C33.3468 16.9388 33.5758 16.778 33.7399 16.5597C33.9041 16.3414 33.9951 16.0768 33.9998 15.8037C34.0045 15.5306 33.9228 15.263 33.7663 15.0391C33.6099 14.8153 33.3866 14.6466 33.1285 14.5573L5.71884 5.0693C5.48915 4.98979 5.24173 4.97652 5.00485 5.031C4.76798 5.08549 4.55122 5.20553 4.37935 5.37739C4.20748 5.54926 4.08744 5.76603 4.03296 6.0029C3.97847 6.23977 3.99175 6.4872 4.07125 6.71689Z"/>
</mask>
<path d="M13.5592 34.1265L9.77926 35.435H9.77926L13.5592 34.1265ZM16.021 34.0838L12.1979 32.9074L16.021 34.0838ZM19.8346 21.6897L23.6577 22.866V22.866L19.8346 21.6897ZM20.6916 20.8326L21.868 24.6558L21.868 24.6558L20.6916 20.8326ZM33.0857 17.0191L31.9094 13.196L33.0857 17.0191ZM33.1285 14.5573L34.4369 10.7773L34.4369 10.7773L33.1285 14.5573ZM5.71884 5.0693L4.41039 8.84924L4.4104 8.84924L5.71884 5.0693ZM0.291309 8.02533L9.77926 35.435L17.3392 32.8181L7.8512 5.40844L0.291309 8.02533ZM9.77926 35.435C10.1445 36.4902 10.8341 37.403 11.7493 38.0428L16.3328 31.486C16.8003 31.8128 17.1526 32.2791 17.3392 32.8181L9.77926 35.435ZM11.7493 38.0428C12.6645 38.6826 13.7586 39.0166 14.8751 38.9972L14.7361 30.9985C15.3065 30.9885 15.8653 31.1592 16.3328 31.486L11.7493 38.0428ZM14.8751 38.9972C15.9916 38.9778 17.0734 38.606 17.9659 37.9348L13.1573 31.5412C13.6132 31.1983 14.1658 31.0084 14.7361 30.9985L14.8751 38.9972ZM17.9659 37.9348C18.8583 37.2636 19.5157 36.3274 19.8441 35.2601L12.1979 32.9074C12.3657 32.3622 12.7015 31.884 13.1573 31.5412L17.9659 37.9348ZM19.8441 35.2601L23.6577 22.866L16.0115 20.5133L12.1979 32.9074L19.8441 35.2601ZM23.6577 22.866C23.528 23.2877 23.2971 23.6712 22.9851 23.9831L17.3282 18.3263C16.7175 18.937 16.2655 19.6878 16.0115 20.5133L23.6577 22.866ZM22.9851 23.9831C22.6731 24.2951 22.2896 24.526 21.868 24.6558L19.5153 17.0095C18.6898 17.2635 17.939 17.7156 17.3282 18.3263L22.9851 23.9831ZM21.868 24.6558L34.2621 20.8422L31.9094 13.196L19.5153 17.0095L21.868 24.6558ZM34.2621 20.8422C35.3294 20.5138 36.2655 19.8564 36.9367 18.9639L30.5431 14.1554C30.886 13.6995 31.3642 13.3637 31.9094 13.196L34.2621 20.8422ZM36.9367 18.9639C37.6079 18.0715 37.9798 16.9897 37.9992 15.8732L30.0004 15.7342C30.0103 15.1639 30.2003 14.6113 30.5431 14.1554L36.9367 18.9639ZM37.9992 15.8732C38.0186 14.7567 37.6845 13.6626 37.0447 12.7474L30.488 17.3309C30.1611 16.8634 29.9905 16.3045 30.0004 15.7342L37.9992 15.8732ZM37.0447 12.7474C36.4049 11.8321 35.4922 11.1426 34.4369 10.7773L31.8201 18.3372C31.281 18.1506 30.8148 17.7984 30.488 17.3309L37.0447 12.7474ZM34.4369 10.7773L7.02728 1.28936L4.4104 8.84924L31.8201 18.3372L34.4369 10.7773ZM7.02729 1.28936C6.08823 0.964299 5.07666 0.910044 4.10823 1.13279L5.90147 8.92922C5.40679 9.043 4.89007 9.01529 4.41039 8.84924L7.02729 1.28936ZM4.10823 1.13279C3.1398 1.35554 2.25359 1.8463 1.55092 2.54897L7.20777 8.20582C6.84884 8.56475 6.39616 8.81544 5.90147 8.92922L4.10823 1.13279ZM1.55092 2.54897C0.848252 3.25164 0.357491 4.13785 0.134744 5.10628L7.93117 6.89952C7.81739 7.3942 7.56671 7.84689 7.20777 8.20582L1.55092 2.54897ZM0.134744 5.10628C-0.0880032 6.07471 -0.0337477 7.08628 0.291311 8.02533L7.8512 5.40844C8.01724 5.88812 8.04495 6.40484 7.93117 6.89952L0.134744 5.10628Z" fill="#FFB619" mask="url(#path-1-outside-1_1138_38494)"/>
</svg>
