<svg width="43" height="44" viewBox="0 0 43 44" fill="none" xmlns="http://www.w3.org/2000/svg">
<path fill-rule="evenodd" clip-rule="evenodd" d="M0 15.4825L15.4161 0.0664062H3.56734C1.6053 0.0664062 3.51278e-05 1.67168 3.51278e-05 3.63371V15.4824L0 15.4825Z" fill="#FF6600"/>
<path fill-rule="evenodd" clip-rule="evenodd" d="M41.0564 2.00976C43.6478 4.60099 43.6476 8.8411 41.0564 11.4325L11.3662 41.1226C8.77494 43.7141 4.53483 43.7141 1.94359 41.1228H1.9434C-0.647833 38.5316 -0.647833 34.2913 1.94359 31.7001L31.6337 2.00983C34.2251 -0.581403 38.4652 -0.581403 41.0565 2.00983L41.0564 2.00976Z" fill="#FF6600"/>
<path fill-rule="evenodd" clip-rule="evenodd" d="M43 27.6504L27.584 43.0664H39.4327C41.3947 43.0664 43 41.4612 43 39.4991V27.6504L43 27.6504Z" fill="#FF6600"/>
</svg>
